<svg xmlns="http://www.w3.org/2000/svg" width="1024" height="1024" xmlns:v="https://vecta.io/nano"><path d="M0 0h1024v1024H0V0z" fill="#edead5"/><path d="M554 95l1-1c33.83-2.01 65.53 4.63 98.06 13.12l2.47.65c9 2.35 17.77 4.91 26.47 8.23l5.69 1.75C720.72 127.79 752.9 140.36 785 153l2.92 1.15c18 7.12 35.73 14.91 51.08 26.85l1.99 1.45c5.31 4.11 9.04 9.56 12.01 15.55v4h2l1 12h1l.33 20.28.12 6.88c.36 16.04-.07 26.15-10.45 38.9-11.92 12.44-26.26 20.83-41.69 28.19l-2.01.96c-10.09 4.69-20.23 7.69-31.11 9.91l-3.48.77c-19.02 3.94-38.29 4.49-57.65 4.42h-3.23c-15.29-.03-30.23-.74-45.42-2.51-10.06-1.16-20.17-1.63-30.29-2.15l-2.09-.11-5.61-.29c-3.42-.25-3.42-.25-6.51-.72-4.62-.63-9.23-.96-13.88-1.27l-2.96-.2-6.33-.43-10.03-.68-24.89-1.69-21.05-1.44-9.87-.67-6.06-.41-2.76-.18c-4.42-.31-8.71-.78-13.08-1.56-1.58-.15-3.16-.27-4.74-.36l-2.69-.16-2.88-.16-3.05-.19-12.8-.75c-12.09-.71-24.15-1.54-36.21-2.68-6.42-.61-12.83-1.04-19.27-1.38-24.59-1.33-47.46-4.6-65.89-22.35-4.7-6.29-4.9-12.21-4.83-19.8v-3.13l.02-6.53.02-9.91.02-6.37v-2.96c.17-16.62 5.88-26.44 17.3-38.27l2.64-2.76c6.1-6.25 12.53-11.81 19.36-17.24l3.55-2.92c7.47-6.17 15.07-12.14 22.83-17.96l2.44-1.83c21.1-15.72 43.35-30.07 67.18-41.29l2-.94a187.85 187.85 0 0 1 26.48-10.02 131.91 131.91 0 0 0 6.73-2.18C528 97 528 97 532 97v2l1.87-1.09c6.91-3.79 12.49-5.46 20.13-2.91z" fill="#fdedd0"/><path d="M492.227 619.832l2.28-.01 4.72-.01 7.2-.04h4.61l2.15-.02c4.36.02 7.73.82 11.81 2.25 2.68.18 2.68.18 5.38.09l3.02-.07 3.17-.08c8.93-.11 16.87.27 25.43 3.06l3.69 1.1c23.27 7.14 41.38 20.63 53.31 41.9l2.25-3.25c12.9-17.02 32.66-30.99 53.75-35.75 7.29-.68 13.39 1.01 20.25 3.22 6.16 1.87 12.24 3.08 18.43.79l2.07-1.32 2.11-1.31 4.43-2.94c3.03-1.61 4.82-1.83 8.22-1.84l3.21-.02 3.41.04 3.54.04c28.33.53 59.03 8.76 80.33 28.34l2.58 2.3c10.91 10.24 16.16 20.65 16.74 35.53.08 2.91.1 5.82.11 8.73l.11 6.7c.2 17.31-6.5 29.59-18.41 41.99a89.66 89.66 0 0 1-15.13 11.75l-1.67 1.06c-26.59 16.56-57.72 22.11-88.64 22.13l-3.93.03c-12.12.02-24.04-1.02-35.69-4.47l-2.27-.66-6.8-2.09-2.08-.66c-17.87-5.78-39.17-16.53-48.92-33.34-1.93-4.03-2.29-7.39-2.41-11.83l-.12-3.92-.09-4.06-.12-4.13-.26-10.06-1.6 2.48c-2.72 4.08-5.71 7.95-8.71 11.83l-1.76 2.29-3.42 4.44-3.6 4.72c-17.31 22.73-37.76 35.8-65.91 40.24l-3.68.63c-20.79 3.04-43.8 3.11-64.32-1.63l-2.38-.54c-24.14-5.55-49.44-15.82-64.62-36.46-7.23-11.74-8.36-22.94-8.31-36.53l-.05-6.11c-.01-16.3 5.02-27.3 16.36-38.92 22.87-22.49 58.36-35.56 90.23-35.61z" fill="#eb5b33"/><path d="M486 469.563l3.06.82c13.51 3.75 25.59 9.3 37.92 15.91 14.91 7.97 30.21 13.96 46.86 17.2 2.16.51 2.16.51 4.16 1.24 8.12 2.95 16.22 2.65 24.73 2.56l4.8-.01 12.53-.08 12.83-.06 25.11-.14.43-1.87c2.23-8.39 9.89-15.12 16.57-20.13 6.26-3.31 12.58-2.07 19.21-.5l2.06.48 4.38 1.04 9.41 2.2 4.85 1.13c19.43 4.54 38.95 8.64 58.47 12.77l2.44.52 27.17 5.39c8.54 1.56 16.92 3.26 25.2 5.91l2.12.65c5.64 1.94 10.68 5.16 13.87 10.31 1.51 3.86 1.15 7.88 1.13 11.97l.05 2.69c.01 5.19-.09 9.19-3.36 13.44-3.33 2.5-6.88 4.55-10.5 6.62l-6.32 3.73-3.18 1.87c-4.2 2.49-8.32 5.09-12.44 7.72l-4.64 2.94-2.4 1.53-11.12 6.95-51.63 32.86-10.77 6.78 14 1v1l-3.55-.03c-10.52.13-16.92 1.45-25.45 8.03-8.04 2.68-15.5.27-23.25-2.23-8.34-2.53-15.2-2.59-23.37.73l-2.06.81c-18.32 7.41-35.6 18.69-46.32 35.69-2.28-2.92-4.17-5.95-6.06-9.13-12.71-19.89-34.06-30.26-56.46-35.36l-2.48-.51-2.31-.53c-2.81-.49-5.36-.55-8.22-.5l-3.15.04-6.51.11-3.15.04-2.86.05c-3.19-.24-5.77-1.2-8.8-2.21-2.98-.32-2.98-.32-6.05-.42l-3.36-.11-3.47-.1-3.53-.11-8.59-.26v-1l19-1-8.77-2.85-8.61-2.8-5.89-1.92-8.57-2.78-2.86-.94-17.98-5.95c-6.63-2.23-13.29-4.33-20.01-6.26l-3.08-.89c-13.14-3.77-26.37-7.2-39.66-10.42l-10.9-2.65-5.44-1.31-7.7-1.87-2.34-.54c-5.96-1.48-10.34-3.79-14.54-8.41-2.29-4.74-2.16-8.79-2.03-13.97l.01-2.83c.07-5.52.13-10.07 3.93-14.39 3.69-3.14 7.44-5.95 11.55-8.52l2.93-1.85 2.96-1.85 5.36-3.4 2.67-1.69 23.13-15.01 17.4-11.46 3.02-1.97 16.04-10.35c5.7-3.64 11.23-7.46 16.74-11.37 7.89-5.23 17.12-2.5 25.64-.19z" fill="#fdd879"/><path d="M614 708h1l.03 2.63.18 9.75.06 4.2c.13 11.64 1.64 18.77 9.73 27.42 25.44 22.33 58 31.49 91.38 31.25l2.04-.01c10.33-.05 20.39-.48 30.58-2.24l3.79-.62c9.32-1.7 18.27-4.27 27.21-7.38l1.92-.67a115.05 115.05 0 0 0 36.22-20.8C820 750 820 750 822 749v2l2 1-1 3 3.75.12c9.42 1.07 19.85 6.9 26.25 13.88 1.14 2.32 1.87 4.47 2.46 6.98C856 778 856 778 858 781c.2 2.74.28 5.37.27 8.11v2.41l-.01 5.07.01 7.7v4.94l.01 2.3c-.13 15.17-7.33 25.65-17.72 35.97-8 7.71-17.05 13.85-26.56 19.5l-1.91 1.14c-8.65 5.07-17.5 8.98-26.97 12.3l-2.84 1c-6.36 2.14-12.66 3.53-19.28 4.56l-3.61.6c-24.49 3.62-50.79 4.21-75.25-.1-3.4-.54-6.73-.78-10.16-.96l-4.1-.24-6.33-.35c-7.59-.41-15.1-.95-22.64-1.96-7.71-1.03-15.39-1.49-23.16-1.87-13.53-.7-27.01-1.79-40.5-3.06l-11.27-1.05-2.8-.26-27.68-2.31-4.62-.36-6.88-.53-24.6-1.98-4.74-.38-6.54-.54-3.74-.31c-3.38-.34-3.38-.34-6.18-.85-4.51-.69-9.02-.78-13.58-.94-11.21-.44-22.38-1.18-33.56-2.11l-9.07-.72c-22.33-1.79-44.2-5.92-60.17-22.89-6.22-9.66-6.42-19.27-6.29-30.4l.01-7.67c.02-12.85 1.51-23.64 10.88-33.24 8.7-8.12 18.15-15.71 29.58-19.52l1.19-1.56c2.43-1.93 4.6-2.04 7.65-1.92 3.31.73 5.34 2.57 7.92 4.7 13.83 10.98 31.3 15.97 48.24 19.78l2.18.5c31.33 6.96 74.82 5.55 102.47-11.86 12.12-7.99 21.66-17.29 30.16-29.01l5.94-7.94L606 719l4.81-6.38c1.11-1.51 2.15-3.06 3.19-4.62z" fill="#fdebca"/><path d="M457.25 331.813l2.49-.04c17.97-.04 35.09 9.88 49.26 20.23l2 2c2.24.56 2.24.56 4.87 1 3.41.57 6.1 1.31 9.13 3l-1-1.88c-1.42-4.42-1.61-8.52-1-13.12 2.41-4.36 5.35-6.33 10-8 8.46-1.36 16.17 1.49 23.19 6.09 4.98 3.67 9.5 7.47 13.81 11.91l1-3c3.74-3.16 7.08-3.46 11.79-3.29 5.38.7 9.2 3.86 13.21 7.29l2.07-2.74c2.78-3.34 6-5.42 9.8-7.45.3-.16.3-.16 1.78-1a181.51 181.51 0 0 1 5.35-2.81l3.38-1.72c4.38-1.55 8.02-1.73 12.62-1.66l2.33-.03c6.38.03 11.29 1.21 16.11 5.66 2.61 4.6 1.89 8.82.56 13.75 8.96-.14 15.56-.86 23-6 3.45-1.73 7.22-1.37 11-1 2.89 1.2 5.3 2.53 7.89 4.26 2.11.74 2.11.74 4.2-.17l2.28-1.59c11.37-7.37 22.96-11.66 36.63-10.5 3.87 1.4 5.72 3.57 8 7 .2 2.92.2 2.92.13 6.19l-.06 3.29-.07 2.52 3.04-1.91 10.79-6.74 4.16-2.6 5.32-3.32 3.12-1.94c5.54-3.22 11.31-3.25 17.57-2.49 3.23 1.62 5.36 3.72 7 7a94.09 94.09 0 0 1 .13 5.31v2.86c-.12 2.71-.52 5.19-1.13 7.83 7.34.62 12.32-2.19 18.8-5.38 6.74-3.01 12.7-4.11 20.01-4.19l2.39-.04c5.6.1 10.19 1.34 14.8 4.61 3 4.49 2.58 8.73 2 14-2.49 8.15-9.04 14.21-15 20-1 1-1 1-1.31 3.81.31 3.19.31 3.19 1.94 5.31 2.37 1.88 2.37 1.88 5.31 3.69 4.71 3.36 7.95 7.43 9.06 13.19.53 5.73-.34 8.55-4 13-5.62 5.32-10.78 6.14-18.23 6.08-4.43-.13-8.81-.55-13.21-1.02l-2.68-.26c-3.48-.36-6.54-.69-9.88-1.8l-.25 3.25c-.84 4.19-1.33 5.29-4.75 7.75-4.28 2.07-8.18 3.45-13 3l-.25 1.81c-.97 2.83-2.23 3.63-4.75 5.19-7.5 2.5-14.77.72-22.25-1-8.09-1.86-15.42-2.49-23.75-2l.11 1.79c.16 4.93.14 8.21-3.11 12.21-4.35 2.17-9.13 1.24-13.63 0-9.03-3.76-17.62-9.28-25.6-14.87-1.77-1.13-1.77-1.13-4.77-2.13l-.69 2.25c-2.04 4.28-5.45 6.17-9.31 8.75-12.1 1.18-19.61-.65-28.88-8.22l-2.12-1.78-1.9-1.57-4.1-3.43-.19 3.12c-.93 4.45-2.32 7.06-5.81 9.88-8.41 5.23-18.57 5.39-28.05 3.34-7.87-2.58-15.06-7.03-20.51-13.28-3.16-2.67-5.06-2.53-9.08-2.3l-2.36.24-2.36.24c-1.88.22-3.76.48-5.64.76l.19 3.19c-.26 5.16-1.73 7.39-5.38 10.93-7.7 5.14-15.34 6.04-24.42 4.41-6.65-1.74-13.89-4.68-17.76-10.64l-1.26-2.27c-2.76-4.57-6.15-6.7-10.74-9.19l-1.9-1.05c-5.51-2.79-10.15-3.11-16.27-1.87-4.67 1.65-8.44 3.53-12.46 6.49l-5.25 3.69-2.58 1.82c-3.88 2.66-6.44 2.82-11.17 2.49-1.87-1.13-1.87-1.13-3-3l-1-6-3.3 1.31c-16.55 6.36-16.55 6.36-25.7 4.69-5.03-2.29-8.57-6.05-11-11-.75-5.37.53-8.31 3-13l-9.63 1.43-2.73.41-2.68.4-2.62.39-5.5.95c-8.86 1.3-19.83 1.91-27.84-2.58-4.06-3.47-5.83-5.37-6.37-10.69.11-4.84 1.93-8 5.37-11.31 6.78-5.38 14-8.35 22.13-10.96 2.87-1.04 2.87-1.04 4.87-3.04-.13-3.37-.82-4.79-3.03-7.35l-2.47-2.28c-3.4-3.15-5.25-4.92-5.74-9.68-.12-4.17-.19-6.92 1.87-10.63 4.56-3.96 8.65-5.44 14.66-5.46l3.6-.01 3.74.03 3.66-.03c7.08.02 13.38.76 20.19 2.73 3.41.92 6.02 1.12 9.52.68 1.94-1.5 1.94-1.5 3-3-1.85-4.76-1.85-4.76-3.13-6.81-1.35-3.39-1.43-6.64-.87-10.19 2.06-3.9 4.19-6.74 8-9 4.39-1.33 8.7-1.19 13.25-1.19z" fill="#6e9e40"/><path d="M856 778c2.51 3.76 2.29 6.75 2.27 11.11v2.41l-.01 5.07.01 7.7v4.94l.01 2.3c-.13 15.17-7.33 25.65-17.72 35.97-8 7.71-17.05 13.85-26.56 19.5l-1.91 1.14c-8.65 5.07-17.5 8.98-26.97 12.3l-2.84 1c-6.36 2.14-12.66 3.53-19.28 4.56l-3.61.6c-24.49 3.62-50.79 4.21-75.25-.1-3.4-.54-6.73-.78-10.16-.96l-4.1-.24-6.33-.35c-7.59-.41-15.1-.95-22.64-1.96-7.71-1.03-15.39-1.49-23.16-1.87-13.53-.7-27.01-1.79-40.5-3.06l-11.27-1.05-2.8-.26-27.68-2.31-4.62-.36-6.88-.53-24.6-1.98-4.74-.38-6.54-.54-3.74-.31c-3.38-.34-3.38-.34-6.18-.85-4.51-.69-9.02-.78-13.58-.94-11.21-.44-22.38-1.18-33.56-2.11l-9.07-.72c-22.33-1.79-44.2-5.92-60.17-22.89-6.26-9.73-6.4-19.37-6.23-30.57l.04-7.76.03-4.99.01-2.32c.08-4.43.67-8.01 2.33-12.19h1l.23 1.87c1.43 9.24 4.78 15.17 12.38 20.76 15.24 10.6 31.8 13.7 49.98 14.9l4.79.35 10.24.74 16.56 1.24 2.87.22 5.81.45 14.71 1.12 2.97.23 15.03 1.14 14.93 1.14 5.56.42 31.84 2.74c7.38.73 14.76 1.21 22.16 1.62l35.6 2.62 31.09 2.42 3.64.25 14.82 1.03c13.18.91 26.3 1.89 39.41 3.49 49.81 5.85 100.07-3.86 140-35.14 10.41-8.38 18.24-17.72 22.38-30.61z" fill="#bf6f1d"/><path d="M856 214h1l.33 20.28.12 6.88c.36 16.04-.07 26.15-10.45 38.9-11.92 12.44-26.26 20.83-41.69 28.19l-2.01.96c-10.09 4.69-20.23 7.69-31.11 9.91l-3.48.77c-19.02 3.94-38.29 4.49-57.65 4.42h-3.23c-15.29-.03-30.23-.74-45.42-2.51-10.06-1.16-20.17-1.63-30.29-2.15l-2.09-.11-5.61-.29c-3.42-.25-3.42-.25-6.51-.72-4.62-.63-9.23-.96-13.88-1.27l-2.96-.2-6.33-.43-10.03-.68-24.89-1.69-21.05-1.44-9.87-.67-6.06-.41-2.76-.18c-4.42-.31-8.71-.78-13.08-1.56-1.58-.15-3.16-.27-4.74-.36l-2.69-.16-2.88-.16-3.05-.19-12.8-.75c-12.09-.71-24.15-1.54-36.21-2.68-6.42-.61-12.83-1.04-19.27-1.38-24.59-1.33-47.46-4.6-65.89-22.35-4.5-6.02-4.89-11.57-4.76-18.84l.01-2.8.09-8.77.04-5.97L355 231l.93 1.86c7.82 15.59 17.78 23.42 34.23 29.26 12.31 3.65 25.04 3.9 37.78 4.55 7.92.41 15.83 1.02 23.74 1.63 5.92.44 11.84.78 17.77 1.02 12.47.52 24.9 1.39 37.34 2.35l49.46 3.39c11.25.62 22.45 1.47 33.67 2.5l45.49 3.7 32.18 2.66c14.67 1.47 29.17 2.36 43.91 2.39l2.28.01c14.21.04 28.27-1.27 42.28-3.7l2.23-.38c30.92-5.49 68.5-17.58 87.71-44.24 4.44-7.6 7.92-15.42 10-24z" fill="#bf6f1e"/><path d="M737.164 341.797c2.65 1.7 4.09 3.58 5.84 6.2l.12 6.19-.05 3.29-.07 2.52 3.04-1.9 10.78-6.74 4.16-2.6 5.33-3.32 3.11-1.94c5.54-3.22 11.32-3.26 17.58-2.5 3.23 1.63 5.36 3.73 7 7a94.22 94.22 0 0 1 .12 5.32l.01 2.86c-.13 2.71-.53 5.18-1.13 7.82 7.34.63 12.31-2.18 18.79-5.38 6.75-3 12.71-4.11 20.02-4.18l2.39-.04c5.59.09 10.18 1.34 14.8 4.6 2.99 4.5 2.57 8.74 2 14-2.49 8.16-9.05 14.22-15 20-1 1-1 1-1.32 3.82.32 3.18.32 3.18 1.94 5.31 2.38 1.87 2.38 1.87 5.31 3.69 4.71 3.36 7.96 7.43 9.07 13.18.53 5.74-.34 8.55-4 13-5.63 5.33-10.79 6.15-18.24 6.09-4.42-.14-8.8-.56-13.2-1.02l-2.68-.27c-3.48-.36-6.55-.68-9.88-1.8l-.25 3.25c-.84 4.2-1.33 5.3-4.75 7.75-4.28 2.08-8.18 3.46-13 3l-.25 1.82c-.98 2.83-2.24 3.63-4.75 5.18-7.5 2.5-14.77.72-22.25-1-8.1-1.86-15.43-2.49-23.75-2l.1 1.8c.17 4.92.14 8.21-3.1 12.2-4.35 2.18-9.14 1.24-13.63 0-9.19-3.82-19.75-9.58-27.37-16l-1-3 2-2v-4l-8.75-3.93-2.5-1.14c-.4-.17-.4-.17-2.43-1.08l-2.22-1c-4.38-1.76-8.13-1.96-12.85-1.91l-3.55.03-2.7.03-1 3c-2.18 1.57-2.18 1.57-4.88 3.13l-2.68 1.57c-2.44 1.3-2.44 1.3-5.44 2.3v-13l3.07.11 4.05.08 2.02.08c4.74.07 7.84-.76 11.86-3.27 2.61-2.8 4.71-5.53 6.68-8.81 1.32-2.19 1.32-2.19 3.32-3.19 7.68-.75 15.38.26 23 1.25l2.78.33c6.56.92 6.56.92 9.58 3.21l1.64 2.21 2.07 2.45 2.18 2.68 2.35 2.9 10.4 12.97-3.82-7.75-1.08-2.21c-1.79-3.62-3.63-6.82-6.1-10.04v-2c11 2.58 21.74 5.71 32.49 9.19l13.19 4.19 4.83 1.52 3.49 1.1v-2l-2.36-.68c-4.84-1.75-9.35-4.04-13.96-6.32-12.3-5.99-24.92-11.08-37.68-16v-3l19-8-9.07 1.38-2.81.42c-3.73.58-7.26 1.24-10.9 2.29-6.11 1.73-12.01 1.81-17.91-.59l-2.31-1.5 1.43-3.68c1.46-4.12 1.56-7.41 1.44-11.75.2-4.34.84-6.66 3.97-9.59 4.04-3.28 8.18-6.32 13.16-7.98v-2c-4.66 1.72-8.61 4.14-12.8 6.76-2.2 1.24-2.2 1.24-4.2 1.24-1.3-2.01-1.3-2.01-2.75-4.68-5.81-9.94-13.63-12.44-24.25-15.32 3.06-2.62 3.73-3 8-3v-2c9.99-1.61 9.99-1.61 14.18.94l1.82 2.06c5.15-1.93 9.97-4.47 14.85-6.99 9.39-4.77 19.68-9.12 30.31-5.21z" fill="#699a3c"/><path d="M669.375 505.75l3.59.05c3.03.2 3.03.2 6.03 1.2 2 3 2 3 1.84 4.98-3.22 7.82-13.8 12-20.77 15.71-15.59 8.52-29.24 18.27-42.55 29.99-3.73 3.24-7.62 6.28-11.52 9.32l-1.65 1.31-5.35 4.19-1.71 1.35c-4.06 3.15-4.06 3.15-6.29 3.15v2l1.67.55 15.84 5.38 2.39.83 7.67 2.68 2.67.93 33.45 12.14 31.67 11.57 5.64 1.98c7.43 2.5 15.25 4.98 22.97 2.24 1.86-.98 3.52-2.07 5.22-3.3l1.97-1.32 4.38-2.98 8.3-5.57 14.99-10.01 16.25-10.84 7.48-4.98 3.75-2.5 10.1-6.74 21.06-14.02 9.89-6.57 4.77-3.17 6.67-4.43 1.99-1.32c4.34-2.89 8.52-5.85 12.21-9.55l.32 9.69.12 2.76c.08 4.3.12 6.75-2.38 10.35-3.94 2.84-7.98 5.34-12.18 7.76l-5.43 3.21-2.77 1.63c-4.02 2.4-7.97 4.9-11.92 7.41l-21.38 13.44-48.61 30.98-10.77 6.77 14 1v1l-3.55-.03c-10.52.13-16.91 1.45-25.45 8.03-8.03 2.68-15.49.27-23.24-2.22-8.34-2.54-15.21-2.6-23.38.72l-2.06.81c-18.32 7.41-35.6 18.69-46.32 35.69-2.27-2.92-4.17-5.94-6.06-9.13-12.71-19.89-34.05-30.25-56.45-35.36l-2.49-.51-2.3-.53c-2.82-.49-5.37-.55-8.22-.5l-3.15.04-6.51.12-3.15.03-2.86.05c-3.19-.24-5.78-1.19-8.81-2.21-2.97-.32-2.97-.32-6.05-.41l-3.36-.12-3.46-.1-3.53-.11-8.6-.26v-1l19-1-8.77-2.85-8.61-2.8-5.89-1.92-8.56-2.78-2.86-.93-17.99-5.96c-6.63-2.22-13.28-4.33-20-6.26l-3.08-.89c-13.15-3.77-26.37-7.2-39.67-10.41l-10.89-2.66-5.44-1.31-7.71-1.86-2.33-.55c-5.65-1.4-9.96-3.47-14.05-7.77-1.38-2.47-1.49-4.01-1.44-6.82l.03-2.69.08-2.79.04-2.84.14-6.91 1.5 2.19c5.55 6.23 12.2 8.7 20.13 10.68l2.83.75c8.88 2.29 17.82 4.34 26.76 6.4 10.36 2.38 20.6 4.94 30.78 7.98l3.02.89c11.61 3.46 23.1 7.01 34.39 11.41 3.9 1.48 7.85 2.81 11.81 4.12l1.99.65 9.89 3.24c6.97 2.29 13.77 4.77 20.51 7.67 3.43 1.46 6.31 2.24 10.02 2.39l2.41.15c7.49-1.32 13.41-6.34 18.72-11.52l1.94-1.86 7.3-7.14 1.65-1.62 11.35-11.2 3.84-3.81c6.84-6.77 13.33-13.55 19.31-21.09 2.28-2.8 4.65-5.14 7.35-7.53l2.78-2.47c3.2-2.68 6.51-5.15 9.95-7.51 2.34-2.33 2.93-4.63 3.77-7.77l2.15-.05c9.2-.78 15.76-4.21 23.61-8.88 7.74-4.56 14.48-7.52 23.62-7.32z" fill="#fdbb4d"/><path d="M457.25 331.813l2.49-.04c17.97-.04 35.09 9.88 49.26 20.23l2 2c2.24.56 2.24.56 4.87 1 3.41.57 6.1 1.31 9.13 3l-1-1.88c-1.38-4.32-1.68-8.62-1-13.12 1.45-2.64 2.32-3.75 5.16-4.79 8.06-.91 12.36 1.27 18.63 6.19l7.98 6.49 1.87 1.56 1.67 1.41c1.88 1.26 3.48 1.72 5.69 2.14-1.52 3.39-3.51 6.01-5.87 8.87-2.94 3.61-5.65 7.2-8.13 11.13-3-1-3-1-4.69-4.07l-1.31-2.93c-2.97 1.05-3.9 1.82-5.48 4.6l-1.27 3.02-1.3 3.04-.95 2.34-1.77-.9c-6.28-3.1-12.12-5.31-19.23-4.1-2.13.97-4.04 2.02-5.98 3.32-3.2 1.07-4.99.02-8.02-1.32a125.28 125.28 0 0 1-6.81-4.75l-3.69-2.7-1.8-1.32c-3.49-2.53-7.09-4.88-10.7-7.23 3.72 3.77 7.54 7.41 11.44 11l1.66 1.54c3.54 3.27 7.17 6.4 10.9 9.46-1.62 3.3-3.36 6.52-5.13 9.75l-1.63 2.98-1.24 2.27c-5.93-.66-11.42-2.18-17.13-3.88-5.76-1.68-11.5-3.34-17.37-4.62-6.75-1.48-13.36-3.41-19.99-5.35-14.28-4.15-14.28-4.15-19.51-4.15 19.27 7.34 38.5 14.43 58.3 20.21l12.7 3.79c.39 4.07.14 7.13-2.36 10.49-5.5 5.05-13.39 7.46-20.27 10.01-7.81 2.92-16.24 6.65-21.37 13.5-.31 3.12-.31 3.12 0 6v3c-7.3 3.61-13.85 5.14-22 4-5.03-2.29-8.57-6.05-11-11-.75-5.37.53-8.31 3-13l-9.63 1.43-2.73.41-2.68.4-2.62.39-5.5.95c-8.86 1.3-19.83 1.91-27.84-2.58-4.06-3.47-5.83-5.37-6.37-10.69.11-4.84 1.93-8 5.37-11.31 6.78-5.38 14-8.35 22.13-10.96 2.87-1.04 2.87-1.04 4.87-3.04-.13-3.37-.82-4.79-3.03-7.35l-2.47-2.28c-3.4-3.15-5.25-4.92-5.74-9.68-.12-4.17-.19-6.92 1.87-10.63 4.56-3.96 8.65-5.44 14.66-5.46l3.6-.01 3.74.03 3.66-.03c7.08.02 13.38.76 20.19 2.73 3.41.92 6.02 1.12 9.52.68 1.94-1.5 1.94-1.5 3-3-1.85-4.76-1.85-4.76-3.13-6.81-1.35-3.39-1.43-6.64-.87-10.19 2.06-3.9 4.19-6.74 8-9 4.39-1.33 8.7-1.19 13.25-1.19z" fill="#6c9c3f"/><path d="M614 708h1l.03 2.63.18 9.75.06 4.2c.13 11.64 1.64 18.77 9.73 27.42 25.44 22.33 58 31.49 91.38 31.25l2.04-.01c10.33-.05 20.39-.48 30.58-2.24l3.79-.62c9.32-1.7 18.27-4.27 27.21-7.38l1.92-.67c11.26-3.99 21.67-9.49 31.22-16.7 2.86-1.63 2.86-1.63 5.31-1.25l2.24 1.18 2.26 1.13c2.05 1.31 3.56 2.39 5.05 4.31.94 4.44.42 8.14-1.56 12.19-5.02 5.79-10.42 9.73-17.38 12.87l-2.22 1.03c-6.73 3.02-13.59 5.23-20.67 7.25-2.64.8-5.24 1.72-7.85 2.63-19.59 6.54-39.72 7.51-60.2 7.53l-2.96.01c-12.1.03-23.36-.79-35.16-3.51l-4.79-.99c-8.06-1.86-15.61-4.08-23.26-7.25-3.57-.92-4.77-.52-7.95 1.24l-4.75 3.12c-4.71 2.89-8.76 4.11-14.25 2.88-2-2-2-2-2.38-4.79.47-3.99 1.77-5.57 4.38-8.59l2.25-2.64L631 782l-2.17-.74c-3.18-1.41-5.47-3.17-8.14-5.38l-2.68-2.2L616 772l-7.22 3.66c-19.37 9.94-39.1 18.54-60.72 21.82-5.18.86-7.41 1.64-11.06 5.52-5.56 1.33-11.25 1.12-16.94 1.06-.87 0-1.75-.01-2.65-.01L511 804l-1-4-1.67.05c-22.79.55-43.45-2.8-65.33-9.05l-.31 2.36C442 796 442 796 439 798.31c-4.46 1.99-8.88 2.12-13.69 2.19l-2.23.06c-3.71-.05-5.89-.44-9.06-2.44-2.02-2.12-2.02-2.12-2.71-4.56 1.02-3.78 3.48-5.58 6.69-7.56 3.37-1.31 3.37-1.31 6-2-2.94-2.47-5.96-4.63-9.19-6.69-16.54-10.89-16.54-10.89-18.28-18.31-.06-3.91-.01-5.45 2.66-8.5 3.06-1.64 4.41-1.84 7.81-1.5 1.82 1.07 1.82 1.07 3.56 2.56 14.79 11.73 32.3 17.36 50.44 21.44l2.18.5c31.33 6.96 74.82 5.55 102.47-11.86 12.12-7.99 21.66-17.29 30.16-29.01l5.94-7.94L606 719l4.81-6.38c1.11-1.51 2.15-3.06 3.19-4.62z" fill="#dcc699"/><path d="M621 682c4.98 5.85 4.18 12.69 4.19 20l.03 2.98.01 2.9.01 2.61c-.27 2.86-.93 4.96-2.24 7.51-2.62.81-2.62.81-5 1 11.17 20.47 35.88 30.38 57.27 36.71 22.75 6.4 46.45 6.9 69.73 3.29l2.54-.39c24.93-3.98 48.57-12.79 68.46-28.61l2.58-2.02c9.14-7.62 15.01-17.02 19.42-27.98h1c.97 17.31.71 29.27-11.02 42.87-2.24 2.47-4.59 4.8-6.98 7.13l-1.92 1.95c-26.48 25.13-67.41 32.22-102.39 32.24l-3.94.03c-12.11.02-24.03-1.01-35.69-4.47l-2.27-.66L668 777l-2.08-.66c-17.87-5.78-39.17-16.53-48.92-33.34-1.93-4.02-2.3-7.39-2.41-11.83l-.12-3.92-.09-4.06-.12-4.13L614 709l-1.61 2.48c-2.72 4.08-5.71 7.95-8.7 11.83l-1.76 2.29-3.43 4.45-3.59 4.71c-17.32 22.73-37.76 35.8-65.91 40.24l-3.68.63c-20.79 3.04-43.8 3.12-64.32-1.63l-2.38-.54c-24.14-5.55-49.45-15.82-64.62-36.46-8.38-13.59-8.29-26.55-8-42 1.75 3.27 2.92 6.62 4.12 10.12 7.03 18.32 24.29 29.8 41.57 37.57 8.53 3.67 17.27 6.22 26.31 8.31l2.07.5c39.92 9.28 89.64 2.36 124.93-18.5 18.09-11.62 30.68-27.71 35.52-48.76L621 682z" fill="#c63a22"/><path d="M550.09 337.531c7.6 3.83 14.02 9.39 19.91 15.47l1-3c3.74-3.16 7.09-3.46 11.79-3.29 5.38.7 9.2 3.86 13.21 7.29l2-2v4h-3l-.59 2.05-.78 2.7-.78 2.67c-.85 2.58-.85 2.58-1.88 4.53-3.72 7.87-3.36 18.47-3.97 27.05 7.02-5.93 13.41-12.37 19.82-18.94l2.33-2.37 2.1-2.15c1.75-1.54 1.75-1.54 3.75-1.54-.54 4.17-2.86 6.46-5.56 9.56-4.82 5.6-9.17 11.41-13.44 17.44 10.6-1.52 21.11-3.48 31.63-5.5l4.89-.93 2.4-.46 9.07-1.73 5.47-1.05 2.94-.55 2.45-.47c2.15-.31 2.15-.31 6.15-.31v2c-14.01 4.21-28.06 8.1-42.27 11.58l-18.4 4.77c-14.96 4-14.96 4-20.33 3.65 3.84 4.71 7.89 9 12.31 13.19 1.69 1.81 1.69 1.81 1.69 3.81-3.22-1.07-5.35-2.28-8.06-4.38-7.31-5.36-16.01-7.38-24.94-6.62-3.49.62-6.89 1.48-10.31 2.37-7.54 1.9-14.98 3.56-22.69 4.63l1.39 1.57c9.61 10.92 9.61 10.92 9.61 13.43-4.11-1.43-7.21-3.45-10.69-6.06-5.46-4.09-8.43-5.55-15.31-4.94-4.53.79-9.02 1.75-13.51 2.77l-6.28 1.39c-7.84 1.73-15.55 3.71-23.25 6.02-3.67 1.01-7.17 1.52-10.96 1.82l1-5-3-2c5.07-2.38 10.14-4.7 15.38-6.68l2.28-.88 4.5-1.68c4.97-1.93 7.31-3.86 9.84-8.76.75-3.38.75-3.38 1-6l-3.81-.63c-8.6-1.73-16.87-4.65-25.19-7.37l-2.92-.95c-10.58-3.43-21.13-6.95-31.52-10.93l-2.29-.86c-5.15-2.02-5.15-2.02-6.27-4.26 11.92.85 23.33 4.4 34.64 8.07 6.5 2.06 13.1 3.58 19.75 5.11 6.98 1.63 13.8 3.56 20.61 5.82l.87-2.81c1.13-3.19 1.13-3.19 3.26-6.32 1.87-2.87 1.87-2.87 1.87-6.87a59.1 59.1 0 0 0-5.37-5.25l-1.63-1.45c-4.27-3.77-8.7-7.31-13.23-10.74l-1.77-1.56v-2c3.9 1.38 6.84 3.19 10.13 5.69l11.75 8.43 2.61 1.82c2.51 1.06 2.51 1.06 5.19.31l2.32-1.25c5.23-2.62 10.58-2.88 16.22-1.43 3.69 1.31 6.8 2.82 9.78 5.43l.52-1.79c1.48-4.85 2.95-8.44 6.48-12.21 2.99 1.1 3.85 1.68 5.25 4.62l.75 2.38h2c1.23-1.62 1.23-1.62 2.63-3.88 3.43-5.34 7.34-10.22 11.37-15.12l-2.21-.27c-3.29-.86-4.9-2.15-7.48-4.36-14.64-12.07-14.64-12.07-23.31-12.37-1.34-.3-2.68-.62-4-1 7.78-4.79 14.89-3.7 23.09-.47z" fill="#85ab43"/><path d="M787 341c3.23 1.62 5.36 3.72 7 7l.12 5.31.01 2.87c-.12 2.71-.52 5.18-1.13 7.82 7.34.62 12.32-2.18 18.8-5.38 6.74-3 12.7-4.11 20.01-4.18l2.39-.05c5.6.1 10.19 1.35 14.8 4.61 3 4.49 2.58 8.73 2 14-2.49 8.15-9.04 14.21-15 20-1 1-1 1-1.31 3.81.31 3.19.31 3.19 1.93 5.31 2.38 1.88 2.38 1.88 5.32 3.69 4.71 3.37 7.95 7.43 9.06 13.19.53 5.73-.34 8.55-4 13-5.62 5.33-10.78 6.14-18.23 6.08-4.43-.13-8.81-.55-13.21-1.02l-2.68-.26c-3.48-.36-6.54-.69-9.88-1.8v5h-1l.56-3c.02-2.91-.44-3.86-2.35-6.11-4.14-3.69-8.49-6.98-13.21-9.89l.5-2.38c1.6-11.58 1.6-11.58-.63-15.71-3.05-3.76-6.25-6.31-10.87-7.91a37.86 37.86 0 0 0-12 1v-2l-14 1 1.07-8.3c-.07-2.7-.07-2.7-1.3-4.49-3.93-2.68-8.38-2.47-13.02-2.77l-3.83-.26L730 379l1.17-1.54c8.67-11.46 8.67-11.46 9.27-15.21L741 360l5-2c2.62-1.49 5.15-3.12 7.69-4.75l4.27-2.7 2.09-1.32 7.76-4.79 2.27-1.38c5.25-2.9 11.09-2.77 16.92-2.06z" fill="#82a742"/><path d="M604.465 408.312l1.53 1.69 2.74 2.42c4.92 4.66 8.18 8.51 10.35 14.94 2.8 8.11 6.98 15.26 12.5 21.8 1.41 1.84 1.41 1.84 2.41 4.84l3 1c-4.7 5.44-9.29 7.66-16.46 8.32-13.1.4-22.43-3.05-32.54-11.32l-2.56-2.94c-3.16-2.67-5.06-2.53-9.08-2.3l-2.36.24-2.35.24a178.2 178.2 0 0 0-5.65.76c.04.52.04.52.19 3.19-.25 5.16-1.72 7.39-5.37 10.93-7.7 5.14-15.34 6.04-24.42 4.41-6.66-1.74-13.9-4.68-17.76-10.64l-1.26-2.27c-2.76-4.57-6.16-6.7-10.75-9.18l-1.89-1.05c-5.52-2.8-10.15-3.12-16.27-1.88-4.67 1.65-8.44 3.53-12.47 6.49l-5.25 3.69-2.57 1.82c-3.89 2.66-6.44 2.82-11.18 2.49-1.87-1.13-1.87-1.13-3-3-.68-3.19-.68-3.19-1-6l-7 2c-.82-3.07-1.29-5.82-1-9 2.6-3.91 6.14-6.43 10-9 3.19-.13 3.19-.13 6 0v4h-2v2l2.76-.74 5.88-1.56 9.86-2.68c7.92-2.2 15.9-4.05 23.94-5.77l3.09-.68c13.68-2.86 13.68-2.86 19.42-.22l2.62 1.84 2.8 1.92 2.63 1.89 2.26 1.58 4.74 3.42-3.25-4.25-1.82-2.39c-1.93-2.36-1.93-2.36-4.16-4.53-1.77-1.83-1.77-1.83-1.77-3.83l13.13-3.44 3.75-.99 3.63-.94 3.34-.88c12.99-3.11 23.57-1.95 35.28 5.14 2.35 1.64 4.64 3.32 6.87 5.11l-1.53-1.68-1.97-2.2-1.96-2.18c-1.54-1.94-1.54-1.94-1.54-3.94l-1.81-.81c-2.18-1.19-3.6-2.29-5.19-4.19v-2c3.01-.85 6.03-1.62 9.07-2.38l2.57-.73c5.92-1.42 8.54-.97 12.83 3.42z" fill="#7fa741"/><path d="M584 575l-.18 2.41-.13 3.21-.18 3.17c.63 4.15 2.41 6.51 5.49 9.21 3.17 1.91 3.17 1.91 6.75 3.5l1.98.89c6.83 2.98 13.84 5.39 20.89 7.79l13.19 4.76 28.78 10.22 12.16 4.28 2.22.78L680 627c-1 2-1 2-4.44 3.19l-4.56 1.37c-20.66 6.56-40.24 18.79-52 37.44-2.28-2.92-4.17-5.94-6.06-9.12-12.56-19.67-33.77-30.24-55.97-35.26L554 624l-3.84-.84L540 621v-2c1.47-1.43 1.47-1.43 3.5-3.1 4.51-3.84 8.54-8 12.56-12.34l2.03-2.16c3.83-4.1 7.58-8.27 11.26-12.51l7.46-8.39 1.45-1.62c3.51-3.88 3.51-3.88 5.74-3.88z" fill="#ece8d3"/><path d="M843 530h1l.31 9.69.13 2.76c.08 4.3.11 6.75-2.39 10.35-3.93 2.84-7.98 5.34-12.17 7.76l-5.43 3.21-2.77 1.63c-4.02 2.4-7.98 4.9-11.93 7.41l-21.37 13.44-48.61 30.98L729 624l14 1v1l-3.55-.03c-10.52.13-16.92 1.45-25.45 8.03-7.23 2.41-14.17.74-21.25-1.44l-4.64-1.37-2.16-.65c-1.95-.54-1.95-.54-4.87-1.08C679 629 679 629 677 627c-1.84-.75-3.72-1.42-5.6-2.06l-3.43-1.17-3.59-1.21-6.98-2.37-3.14-1.05c-3.1-1.08-6.17-2.22-9.24-3.38l-9.56-3.5-4.26-1.55-6.56-2.37c-35.98-13.02-35.98-13.02-40.84-19.32-1.85-4.69-1.13-10.07-.8-15.02l1.65.83c10.32 5.14 20.7 9.21 31.6 12.92l13.29 4.59 2.7.93c7.53 2.62 14.99 5.4 22.44 8.24l31.68 11.57 5.64 1.98c7.43 2.5 15.25 4.98 22.97 2.24 1.86-.98 3.51-2.07 5.22-3.3l1.97-1.32 4.38-2.98 8.3-5.58 14.99-10 16.25-10.84 7.47-4.98 3.76-2.5 10.1-6.74 21.05-14.02 9.89-6.57 4.77-3.17 6.68-4.43 1.99-1.32c9.65-6.44 9.65-6.44 11.21-9.55z" fill="#fdc053"/><path d="M817.316 754.125c8.53 3.32 8.53 3.32 10.68 6.88.83 4.58.49 7.99-1.56 12.18-5.02 5.79-10.41 9.73-17.37 12.88l-2.23 1.02c-6.73 3.02-13.58 5.24-20.67 7.26-2.64.8-5.24 1.72-7.84 2.62-19.59 6.54-39.73 7.52-60.2 7.54l-2.97.01c-12.1.02-23.36-.79-35.16-3.51l-4.79-1c-8.06-1.85-15.61-4.08-23.25-7.25-3.57-.91-4.77-.51-7.96 1.25l-4.75 3.12c-4.7 2.89-8.76 4.1-14.25 2.88-2-2-2-2-2.56-4.63.84-5.03 3.93-7.93 7.56-11.37l2-1c3.29 1.45 6.45 3.1 9.64 4.74 3.84 1.43 5.5 1.48 9.36.26 2.89-1.75 2.89-1.75 5.69-3.88l2.83-2.12c2.48-2 2.48-2 4.07-3.77 1.41-1.23 1.41-1.23 5.35-1.11 3.64.53 7.14 1.38 10.69 2.31 12.16 3.16 24.23 3.91 36.75 3.81h2.04c10.33-.05 20.39-.49 30.58-2.24l3.79-.63c9.33-1.7 18.27-4.26 27.21-7.37l1.93-.67c10.86-3.86 22.01-8.98 30.72-16.67 2.35-1.66 2.35-1.66 4.67-1.54z" fill="#dbc699"/><path d="M638 115c4.6 2.2 4.6 2.2 6 5 .56 2.62.56 2.62 0 6-4.56 5.65-10.29 9.91-16.31 13.88l-2.42 1.62L617 147l-6.71 4.49-24.75 16.46c-9.32 6.16-18.47 12.53-27.54 19.05l-2.39 1.72c-9.63 6.95-18.95 14.08-27.93 21.84-25.37 21.74-25.37 21.74-35.06 22.82-3.62-.38-3.62-.38-6.56-2.44-2.06-2.94-2.06-2.94-2.81-6.25 1.86-9.16 10.81-14.22 17.95-19.37 3.41-2.49 6.76-5.07 10.11-7.63l2.2-1.68 12.16-9.58c13.72-11.14 28.4-20.85 43.11-30.61l24.28-16.51 2.43-1.7 10.05-7.15c5.8-4.11 11.71-7.94 17.84-11.52l1.98-1.2c4.35-2.47 7.51-3.27 12.64-2.74z" fill="#c06f1e"/><path d="M551 94c2.56 1.5 2.56 1.5 4 3-.46 4.91-1.61 7.26-5 10.81l-2.48 2.61L545 113l-2.21 2.33c-4.77 4.93-9.87 9.26-15.22 13.55-2.82 2.33-5.37 4.82-7.91 7.45-2.37 2.38-4.9 4.54-7.44 6.73-2.55 2.23-5.04 4.52-7.53 6.82-4.52 4.12-9.18 8-13.94 11.84-2.83 2.35-5.54 4.79-8.25 7.28-4.45 4.09-9.05 7.92-13.75 11.72-2.83 2.35-5.54 4.79-8.25 7.28-4.43 4.07-8.99 7.93-13.68 11.71l-7.41 6.18c-15.01 12.7-15.01 12.7-22.79 13.42-3.62-.31-3.62-.31-6.56-1.75-2.58-3.21-2.92-5.15-2.65-9.21 2.96-11.79 21.68-22.29 30.99-29.53l11.1-8.82 12.87-10.2a506.69 506.69 0 0 0 29.38-24.77l6-5.28c2.51-2.18 4.96-4.4 7.37-6.69C537.38 92.55 537.38 92.55 551 94z" fill="#bf6f1e"/><path d="M709 133c3.06 1.12 3.06 1.12 5 3 1.06 2.88 1.06 2.88 1 6-3.18 5-7.76 7.91-12.56 11.19l-2.63 1.81-27.59 18.53c-22.93 15.24-44.88 31.23-65.84 49.09L592.62 234l-1.69 1.39c-4.79 3.8-9.37 6.3-15.55 7.05-3.99-.52-5.57-1.63-8.38-4.44-1.57-3.15-1.35-5.52-1-9 3.63-5.11 8.04-8.56 13.06-12.25 5.11-3.82 10.14-7.68 15-11.81 18.72-15.8 39.4-29.17 59.96-42.41l16.02-10.55 6.27-4.18 12.98-8.82c6.42-4.49 11.69-7.89 19.71-5.98z" fill="#c06f1e"/><path d="M763.688 645.688c18.1 4.71 38.23 12.25 48.5 28.94 2.11 4.31 2.4 7.63 1.81 12.37l-2 2h-3l2.07 1.94c2.27 3.59 2.59 5.25 1.95 9.38-2.54 6.68-8.02 12.68-13.02 17.68-5.02-.22-7.2-1.91-11-5-4.91-2.69-9.28-4.71-15-4l-1 1c-10.37.97-22.14-5.59-30-12 .19-2.31.19-2.31 1-5l5-3c.66-2.59.66-2.59 1-5l2.39-.52 10.74-2.35 3.75-.82 3.63-.8 3.33-.73c3.13-.77 6.12-1.72 9.16-2.78l9-3c-1.78-4.18-3.84-5.19-8-7v-5c-8.17-.66-14.24.44-21.76 3.64-3.13 1.32-6.25 2.36-9.49 3.36-4.67 1.5-8.61 3.45-12.71 6.15-2.67 1.12-4.3.63-7.04-.15-.66-6.09 1.66-10.65 4.13-16.06l1.15-2.68c5.62-12.5 12.54-13.86 25.41-10.57z" fill="#c03922"/><path d="M274 504c2.87 1.79 4.49 2.98 6 6 .82 6.46-.46 9.51-4.37 14.64l-1.88 2.36-1.93 2.51-3.93 5.08-7.95 10.47-1.47 1.95L247.5 562 229 587l-2.39 3.15-2.11 2.73-1.78 2.3c-2.63 2.79-4.82 3.7-8.6 4.2-7.29-.88-11.11-6.42-15.69-11.66-2.43-2.72-4.96-5.29-7.55-7.84a174.68 174.68 0 0 1-10.41-11.19c-1.47-1.69-1.47-1.69-3.1-3.14-2.6-2.94-2.6-6.76-2.37-10.55 2.02-3.51 4.12-5.75 8-7 4.38-.57 6.7.14 10.3 2.65 3.39 2.69 6.33 5.86 9.32 8.97l3.92 4.04 1.72 1.8c1.81 1.6 3.54 2.56 5.74 3.54 7.75-9.36 14.83-19.2 22-29l14-19 1.5-2.03 4.06-5.41 2.26-2.99c4.92-5.79 8.66-7.96 16.18-6.57z" fill="#4d6637"/><path d="M272 352c3.06 1.77 5.51 3.51 8 6 .65 6.31-.15 9.18-4.12 14.31l-2.78 3.66-1.52 1.96a309.56 309.56 0 0 0-4.87 6.57c-6.34 8.72-12.85 17.3-19.52 25.78-4.15 5.32-8.14 10.73-12.07 16.22-12.98 18.12-12.98 18.12-17.12 19.5-6.68.91-6.68.91-9.91-1.31a216.82 216.82 0 0 1-13.4-13.38l-3.9-4.23-1.93-2.09a267.97 267.97 0 0 0-5.24-5.42l-1.54-1.58-4.1-4.15c-2.67-3.83-2.86-6.19-2.98-10.84 2.86-5.43 2.86-5.43 6-7 4.13-.68 8.19-1 11.95 1.07 2.16 1.86 4.08 3.86 6.05 5.93l3.61 3.58L213 417c4.61-4.29 8.22-9.13 11.94-14.19l15.5-20.37c5.58-7.14 11-14.36 16.2-21.78 4.15-5.8 7.66-9.76 15.36-8.66z" fill="#4c6637"/><path d="M274 658c2.94 2.44 2.94 2.44 5 5l1 1c.57 3.71.78 7.41-.9 10.84-1.32 1.78-2.73 3.4-4.22 5.04l-3.33 3.91-1.77 2.07c-3.05 3.67-5.85 7.53-8.66 11.39l-1.77 2.42-3.57 4.89L247 716.5l-10.82 14.71-1.9 2.59-3.57 4.88c-8.67 11.8-8.67 11.8-11.71 13.32-2.21.27-2.21.27-4.81.38l-2.58.14c-3.66-.73-5.22-2.86-7.61-5.52l-4.18-4.14-4.7-4.67-2.35-2.33c-4.26-4.25-8.36-8.56-12.27-13.14-1.5-1.72-1.5-1.72-3.15-3.32-2.28-2.37-2.22-5.01-2.49-8.17.21-3.39 1.7-5 4.14-7.23 3.8-1.9 7.87-1.72 12-1 3.17 1.86 5.5 4.33 8 7l4.56 4.62 2.25 2.29c2.87 2.74 5.88 4.91 9.19 7.09l.8-1.71c1.3-2.48 2.79-4.6 4.45-6.85l2.16-2.94 1.23-1.66 4.54-6.19 20.77-27.68 5.94-7.85 1.37-1.83 3.62-4.85c3.87-4.45 8.28-5.62 14.12-4.44z" fill="#4d6738"/><path d="M768 154c3.5 2.43 4.75 3.82 5.62 8-1.26 6.09-7.61 9.68-12.43 13.19l-1.99 1.45c-5.15 3.71-10.46 7.08-15.87 10.38-8.21 5.06-16.03 10.67-23.89 16.26l-6.89 4.83c-12.58 8.76-24.92 17.83-36.55 27.83-14.26 12.15-14.26 12.15-22.76 11.58-3.67-.85-5.21-2.41-7.24-5.52-.74-3.1-.69-4.85.97-7.62 4.06-5.12 9.3-9.06 14.4-13.09l5.18-4.18A410.9 410.9 0 0 1 692 198l2.22-1.54c14.68-10.13 29.47-20.09 44.49-29.7 2.9-1.85 5.76-3.75 8.61-5.68l4.18-2.77 1.88-1.31c4.72-3.07 9.02-4 14.62-3z" fill="#c06f1e"/><path d="M527.266 692.762c12.96.83 26.67 8.83 38.54 13.71 4.7 1.93 9.42 3.78 14.19 5.53-.3 3.16-.53 4.59-2.96 6.73-5.01 2.88-9.37 4.96-15.13 5.75-2.38.65-3.18 1.77-4.91 3.52-16.66 8.79-36.1 9.38-54.5 9.5l-2.49.03h-7.1l-2.15.02c-5.36-.1-8.96-1.75-12.76-5.55-.82-5.67.5-8.56 3.82-13.12l2.18-2.88 3.12-4.32 3.45-4.68 1.68-2.33 1.63-2.17 1.46-1.97c2.17-1.99 3.75-2.34 6.66-2.53 2 2 2 2 2.16 5.44l-.09 4.12c-.07 2.48-.09 4.95-.07 7.44 1.59 1.58 3.38 1.35 5.57 1.56l2.5.25 1.93.19.41 1.71.53 2.23.53 2.21c.53 1.85.53 1.85 1.53 2.85a104.18 104.18 0 0 0 5 0c1.16-4.06.84-6.22-1-10l7-5c-.33-3.74-1.06-5.07-3.56-8-2.44-3-2.44-3-2.87-5.75.74-3.8 1.93-4.21 5.7-4.49zM700 697c1 1 1 1 1.47 3.21-.73 4.31-3.61 5.91-6.97 8.48A206.03 206.03 0 0 0 688 714v2l10 4-1.5 2.19c-1.58 2.96-1.78 4.52-1.5 7.81h6l.94-3.81c1.01-2.8 1.53-3.91 4.19-5.32a72.6 72.6 0 0 1 4.81-1.3C713 719 713 719 715 717c.34-2.53.34-2.53.5-5.5.28-5.28.28-5.28 2.5-7.5 2.92-.37 2.92-.37 6 0 3.07 2.71 4.93 6.5 7 10l1.27 2.14 4.11 7.11 1.33 2.33c2.31 4.15 3.88 7.6 4.29 12.42-6.08 5.82-15.69 5.33-23.56 5.25l-2.92-.02c-8.3-.12-16.33-.78-24.52-2.23l-2.04-.36C674 737.89 659.13 732.36 647 723c-.07-2.23-.07-2.23 1-5 2.82-1.87 5.93-3.05 9.06-4.31l5.49-2.35 2.78-1.18c3.86-1.68 7.61-3.56 11.36-5.47l3.88-1.96 6.17-3.12c4.68-2.24 8.06-3.15 13.26-2.61z" fill="#bf3922"/><path d="M571 504c3.58.45 6.78.93 10.23 2.03 6.86 1.73 14.06 1.21 21.08 1.17l4.74-.01 12.41-.05 12.69-.04L657 507c-10.8 8.19-23.18 15.67-37 16l-.61 2.66c-1.7 4.09-4.18 6.18-7.58 8.84l-1.79 1.46-7.12 5.7c-4.61 3.75-8.14 8.17-11.79 12.85A28.24 28.24 0 0 1 585 560c-7.9-6.97-11.8-16.15-15-26l-1-3c-.23-3.25-.19-6.5-.19-9.75l-.03-2.67c-.02-5.26.5-9.6 2.22-14.58zm-85-34.437l3.06.82c13.51 3.75 25.6 9.3 37.92 15.91 12.58 6.73 25.32 11.75 39.02 15.71-9.64 6.42-26.83 6.75-38 5-2.61-1.27-4.41-2.7-6.62-4.55-3.81-2.33-7.89-2.34-12.24-2.7-7.44-.62-14.8-1.64-22.18-2.8l-4.13-.63c-12.48-1.84-12.48-1.84-16.88-4.44-5.48-3.13-11.81-2.56-17.95-2.63l-3.79-.09-9.21-.16c1.33-3.99 3.82-5.05 7.25-7.13l3.82-2.38 1.97-1.24c4.2-2.69 8.25-5.61 12.32-8.5 7.89-5.23 17.12-2.5 25.64-.19z" fill="#fdc95f"/><path d="M696 416.25l2.79.33c6.55.92 6.55.92 9.57 3.22L710 422l2.04 2.37c4.81 5.89 9.46 11.86 13.94 18 1.61 2.1 3.16 3.73 5.08 5.5 3.2 5.16 3 11.25 1.94 17.13-2.65 2.8-3.82 2.98-7.75 3.37-11.65-.55-26.42-9.94-35.25-17.37l-1-3 2-2v-4l-8.75-3.94-2.5-1.13-2.42-1.08-2.22-1c-4.39-1.77-8.13-1.96-12.86-1.91l-3.55.02-2.7.04-1 3c-2.18 1.57-2.18 1.57-4.88 3.13l-2.67 1.57C645 442 645 442 642 443v-13l3.07.11 4.05.08 2.02.07c4.74.07 7.85-.76 11.86-3.26 2.62-2.8 4.72-5.53 6.69-8.81 4.24-7.07 19.34-2.85 26.31-1.94z" fill="#5f9036"/><path d="M737.164 341.797c2.65 1.7 4.09 3.58 5.84 6.2 1.21 7.73-.71 15.31-4.79 21.87-5.2 6.95-10.86 11.52-19.21 14.13-2.65.24-5.02.23-7.65-.08-3.56.13-5.47 1-8.35 3.08-.77 2.93-1.15 5.17-1.32 8.13-.63 7.82-.63 7.82-1.68 8.87-2.34.04-4.67.05-7 0-1.23-3.67-.34-4.42 1.28-7.72.93-2.95.68-5.51.59-8.59.2-4.37.8-6.76 3.97-9.71 4.04-3.28 8.19-6.32 13.16-7.98v-2c-4.66 1.72-8.61 4.14-12.8 6.76-2.2 1.24-2.2 1.24-4.2 1.24-1.3-2.01-1.3-2.01-2.75-4.68-5.81-9.94-13.63-12.44-24.25-15.32 3.06-2.62 3.73-3 8-3v-2c9.99-1.61 9.99-1.61 14.18.94l1.82 2.06c5.15-1.93 9.97-4.47 14.85-6.99 9.39-4.77 19.68-9.12 30.31-5.21z" fill="#65963b"/><path d="M811 189c2.36 1.16 4.15 2.15 6 4 .5 3.19.5 3.19 0 7-4.14 4.85-10.07 8.06-15.5 11.25-8.34 5.01-16.48 10.25-24.5 15.75l-2.09 1.43c-8.74 5.98-17.07 12.15-24.98 19.19-5.27 4.28-9.89 7.17-16.84 6.83-3.59-.77-5.08-2.47-7.09-5.45-.77-3.14-.54-4.92.9-7.81 12.92-19.46 42.13-32.52 61.79-43.84 2.05-1.2 4.07-2.44 6.07-3.71 5.7-3.57 9.45-5.83 16.24-4.64z" fill="#c1701f"/><path d="M615 370c-.54 4.17-2.86 6.46-5.56 9.56-4.82 5.6-9.17 11.42-13.44 17.44 10.6-1.52 21.11-3.48 31.62-5.5l4.9-.93 2.4-.46 9.07-1.73 5.47-1.04 2.94-.56 2.45-.47C657 386 657 386 661 386v2c-14.01 4.21-28.06 8.11-42.27 11.59l-18.41 4.76c-14.95 4-14.95 4-20.32 3.65 3.84 4.72 7.89 9 12.31 13.19C594 423 594 423 594 425c-3.22-1.07-5.36-2.28-8.06-4.38-7.31-5.36-16.01-7.38-24.94-6.62-3.49.62-6.89 1.48-10.31 2.38-7.54 1.89-14.98 3.55-22.69 4.62l1.39 1.57C539 433.5 539 433.5 539 436c-4.11-1.43-7.21-3.45-10.69-6.06-5.46-4.09-8.43-5.55-15.31-4.94-4.53.79-9.02 1.76-13.51 2.77l-6.28 1.39c-7.84 1.73-15.55 3.71-23.25 6.02-3.67 1.02-7.17 1.52-10.96 1.82v-2l2.21-.85 3.17-1.21 3.61-1.39 8.14-3.19c10-3.98 20.1-7.53 30.32-10.88l2.4-.8c2.15-.68 2.15-.68 5.45-1.37 4.17-2.02 5.53-5.41 7.58-9.43l1.21-2.29L526 398h2c-.57 5.45-1.95 9.91-4 15 5.29-.67 9.56-1.52 13.37-5.44 2.01-2.79 3.86-5.62 5.63-8.56 1.3-2.04 2.61-4.02 4-6h2c-1.67 6.16-4.88 11.48-8 17l2.07-.7c8.2-2.65 16.46-4.64 24.89-6.46L576 401l2.65-.54c5.9-1.4 8.79-3.37 12.5-8.12 3.66-4.63 8-8.67 12.16-12.84l2.75-2.78 2.62-2.63 2.37-2.38C613 370 613 370 615 370z" fill="#c2d573"/><path d="M669.375 505.75l3.59.05c3.03.2 3.03.2 6.03 1.2 2 3 2 3 1.84 4.98-3.22 7.82-13.8 12-20.77 15.71-15.59 8.52-29.24 18.27-42.55 29.99-7.84 6.82-16.26 13.01-24.52 19.32l-2-1 1.88-3.45c4.7-8.76 9.19-17.57 13.31-26.61l1.21-2.61 1.09-2.43.96-2.14c.55-1.76.55-1.76-.45-3.76l1.9-1.32 2.48-1.81 2.46-1.75c2.58-2.53 3.27-4.66 4.16-8.12l2.15-.05c9.2-.78 15.76-4.21 23.61-8.88 7.74-4.56 14.48-7.52 23.62-7.32z" fill="#fdc051"/><path d="M681 511c2.96 2.31 3.92 3.48 4.5 7.25-.78 5.88-3.46 11.35-7.5 15.75h-2v2c-6.34 5.59-13.44 9.97-20.79 14.06-8.31 4.63-16.02 10.05-23.7 15.63l-6.97 5.02-8.68 6.45c-9.15 6.83-9.15 6.83-13.87 6.86-2.61-.75-4.66-1.65-6.99-3.02l-4-2v-2a151.66 151.66 0 0 1 3.98-2.62c4.58-3.13 8.75-6.84 13.02-10.38l11-9 1.7-1.4c13.62-11.21 27.64-20.51 43.18-28.87 14.13-7.74 14.13-7.74 17.12-13.73z" fill="#fdd26e"/><path d="M425.137 665.223c1.86.78 1.86.78 3.11 2.84l.75 1.94h3l2 4 2.29-.14c7.97-.26 15.38.54 23.21 1.95l2.86.5c5.03.95 9.21 2.11 13.64 4.69v5l-3.7.08c-20.36.62-20.36.62-28.3 4.92l-1 4-13 2-1 4c3.75.15 6.76.07 10.38-1 4.24-1.17 8.24-1.58 12.62-1l3 2c-2.87 2.4-5.11 3.44-8.75 4.25-4.89 1.36-7.84 3.52-11.46 7.03-4.86 4.67-4.86 4.67-8.1 4.84-7.8-3.26-11.54-10.69-14.69-18.12-2.17-6.53-2.15-15.24-.13-21.85 2.41-4.61 7.42-12.54 13.27-11.93z" fill="#c03b23"/><path d="M475 403c5.27.45 10.02 1.08 15 3 .39 4.07.14 7.13-2.36 10.5-5.5 5.05-13.39 7.45-20.26 10-7.82 2.92-16.25 6.66-21.38 13.5-.31 3.12-.31 3.12 0 6v3c-7.3 3.62-13.85 5.14-22 4-5.02-2.28-8.59-6.05-11-11-.41-3.43-.27-5.92.56-9.25 1.44-1.75 1.44-1.75 4.82-2.94 2.58-.96 3.45-1.53 4.9-3.93.67-1.59 1.31-3.2 1.9-4.82C426 419 426 419 428 417c4.22-.1 8.31.78 12.31 2.06 7.7 1.96 15.48 2 22.65-1.66 5.23-3.6 9.08-8.83 12.04-14.4z" fill="#5e9236"/><path d="M550.563 640.5l2.32.52c10.24 2.48 20.09 7.13 28.12 13.98-.29 1.9-.29 1.9-1 4-2.69 1.2-5.21 2.13-8 3l-4.6 1.58-2.41.82c-10.65 3.64-21.27 7.54-31.26 12.79-2.3 1.07-4.23.95-6.73.81l-.56-2.38c-1.44-2.62-1.44-2.62-5.07-3.93l-3.37-.69c-.53-6.46 1.29-11.26 3.75-17.19l1.05-2.69c3.33-8.2 3.33-8.2 7.2-11.12 6.66-2.22 13.83-.99 20.56.5z" fill="#be3822"/><path d="M616 738c1.09 1.64 1.09 1.64 1.94 3.69 5.7 13.65 23.17 23.69 36.24 29.23 4.56 1.83 9.17 3.49 13.82 5.08l-14 11-2.62 2c-3.43 1.44-5.77.73-9.38 0-9-3.8-17.7-9.5-25-16l-1-3h-3c-1.43-1.69-1.43-1.69-2.88-4l-1.56-2.49L607 761l-1.46-2.17c-2.63-3.94-4.18-6.99-4.54-11.83-3.72-.2-4.77-.15-8 2l-2-1v-2l10.25-4.56 2.93-1.33 2.84-1.24 2.6-1.16c2.63-.78 3.86-.74 6.38.29z" fill="#d8c090"/><path d="M418 381c11.92.85 23.33 4.4 34.64 8.07 6.5 2.06 13.1 3.58 19.75 5.11 6.98 1.63 13.8 3.56 20.61 5.82l.89-2.81c1.99-5.72 5.44-10.34 10.11-14.19 2.88.14 3.88.88 5.93 2.93 12.17 15.66 12.17 15.66 11.97 20.49-1.68 4.8-3.54 7.92-8.19 10.19l-3.9 1.21-2.11.67-6.7 2.07-8.75 2.76-2.15.67c-6.19 1.97-12.14 4.4-18.1 7.01-4.14 1.71-7.44 3-12 3v-2l-3-2c5.07-2.38 10.14-4.7 15.38-6.68l2.28-.88 4.5-1.68c4.97-1.92 7.31-3.86 9.84-8.76.75-3.38.75-3.38 1-6l-3.81-.62c-8.6-1.74-16.87-4.65-25.19-7.38l-2.92-.95c-10.58-3.43-21.13-6.95-31.52-10.93l-2.29-.86c-5.15-2.02-5.15-2.02-6.27-4.26z" fill="#7ca83f"/><path d="M550.09 337.531c7.6 3.83 14.02 9.39 19.91 15.47l1-3c3.74-3.16 7.09-3.46 11.79-3.29 5.38.7 9.2 3.86 13.21 7.29l2-2v4h-3l-.59 2.05-.78 2.7-.78 2.67c-.85 2.58-.85 2.58-1.88 4.54-3.59 7.56-3.16 17.18-2.84 25.36-.13 2.68-.13 2.68-2.13 5.68l-4-1 1-3h-2a94.66 94.66 0 0 1-4.37-6l-1.23-1.8c-7.4-11.02-7.4-11.02-7.4-16.2l-4.31.44-2.43.24c-2.26.32-2.26.32-5.26 1.32l-2-2c.26-3.85 2.45-5.9 5-8.63 3.92-4.21 3.92-4.21 5-6.37-.36-.05-.36-.05-2.21-.27-3.29-.86-4.9-2.15-7.48-4.36-14.64-12.07-14.64-12.07-23.31-12.37-1.34-.3-2.68-.62-4-1 7.78-4.79 14.89-3.7 23.09-.47z" fill="#7da640"/><path d="M665.621 431.512c9.43 1.36 18.27 5.66 26.38 10.49-.52 2.76-1.11 5.32-2 8h-3l-.69 2.25c-2.04 4.28-5.45 6.17-9.31 8.75-12.01 1.17-19.7-.63-28.95-8.15-2.69-2.42-4.87-4.97-7.05-7.85 4.44-4.12 8.46-7.43 14-10l1.37-1.54c2.8-2.51 5.64-2.04 9.25-1.95z" fill="#81a943"/><path d="M736 401c-6.53 3.39-13.12 6.38-20 9 2.72 1.81 5.1 2.95 8.1 4.18l3.14 1.3 3.38 1.4c13.37 5.57 26.39 11.72 39.38 18.12v2c-5.19-.57-9.74-1.83-14.62-3.69-7.57-2.77-15.22-5.07-22.98-7.22-5.53-1.53-10.98-3.22-16.4-5.09l1.86 3.07 2.45 4.05 1.23 2.02c4.68 7.77 4.68 7.77 6.46 11.86l-1 2c-4.32-4.82-8.42-9.75-12.36-14.89-1.47-1.9-3-3.73-4.58-5.55C708 421 708 421 708 419l-30-4v-2c1.76-1.42 3.59-2.76 5.44-4.06 5.53-3.91 5.53-3.91 6.56-4.94l5.59.73c9.56 1.08 17.93-.52 27.18-2.76 10.29-2.44 10.29-2.44 13.23-.97z" fill="#afc15d"/><path d="M463.254 398.098l8.87 2.59 2.82.76 2.06.55c-9.79 15.82-9.79 15.82-18.72 18.56-10.27 1.97-21.51.29-30.28-5.56v-2l-2.44-.94c-2.56-1.06-2.56-1.06-3.56-2.06a87.66 87.66 0 0 0-4.57-.56l-2.5-.25-1.93-.19c7.59-5.06 17.3-6.67 26.12-8.6 3.79-.85 7.31-1.86 10.88-3.4 5.02-1.52 8.44-.49 13.25 1.1z" fill="#71a341"/><path d="M685 645l1 6 2-3c2.81-.56 2.81-.56 6 0l5 6h4v2l3 1c1.81 4.76 2.21 8.94 2 14-10.38.83-18.85-2.32-28-7-4.44-1.56-7.44-2.38-12-1v4l-4.75.19c-.44.01-.44.01-2.67.1-3.06-.34-4.39-1.17-6.58-3.29v-2l-3-1c7.73-9.11 21.91-16.55 34-16z" fill="#ef6c41"/><path d="M483.5 637.688l2.26-.09c3.94-.04 5.79.12 9.21 2.3 3.46 3.59 3.24 6.16 3.19 10.96-.86 16.84-.86 16.84-4.16 20.14-1.99-.13-1.99-.13-4-1-3.61-5.02-4.47-10.79-4.63-16.83-.46-2.67-1.24-3.55-3.37-5.17-2.5-.43-2.5-.43-5 0l-1.32 2.02c-1.68 1.98-1.68 1.98-4.13 2.34l-2.87-.19-3.12-.17-3.25-.25-3.28-.2-8.03-.55-2-4c4.15-2.77 8.27-4.21 13-5.62l2.12-.66c6.62-2.02 12.5-2.94 19.38-3.03z" fill="#be3923"/><path d="M696 417l1 4-8 3 1.49 1.58c2 3.21 1.81 5.42 1.7 9.17l-.08 3.55-.11 2.7c-5.02-.76-9.31-2.77-13.92-4.83-5.67-2.5-9.62-3.29-15.83-3.23l-3.55.02-2.7.04-1 3c-2.18 1.57-2.18 1.57-4.88 3.12l-2.67 1.58C645 442 645 442 642 443v-13l3.07.11 4.05.08 2.02.07c4.74.07 7.85-.76 11.86-3.26 2.62-2.8 4.72-5.53 6.69-8.81C674 411 689.21 415.5 696 417z" fill="#5a8a35"/><path d="M571 504h1l.3 1.69c2.1 10.75 6.78 18.81 15.86 25.23 2.2 1.29 4.46 2.18 6.84 3.08l-.66 2.38c-2.37 8.96-2.37 8.96-2.15 13.43-.28 4.7-2.93 7-6.19 10.19-4.56-2.23-6.7-5.08-9.06-9.44l-1.04-1.9c-6.78-12.74-9.93-27.5-5.88-41.77L571 504z" fill="#fdd06b"/><path d="M652 661l4.34 3.88c2.46 1.66 5.01 1.58 7.91 1.76 9.32 1.21 21.51 5.41 28.75 11.36.85 2.62.85 2.62 1 5-1 1-1 1-3.95 1.13-1.23 0-2.47 0-3.74-.01l-3.7.01c-3.31-.12-6.35-.57-9.61-1.13l-10.25-.52c-3.7-.18-6.59-.46-9.75-2.48l5-2v-2c-3.03-2.02-4.09-2.29-7.56-2.56-4.25-.34-4.25-.34-6.44-1.44l-2 4-4-1c-.94-2.5-.94-2.5-1-6 4.09-6.17 7.42-10.04 15-8z" fill="#c03923"/><path d="M749.977 533.734c2.36 1.48 3.59 2.88 5.02 5.27 0 3.74-.46 5.41-3 8.18-7.21 4.36-14.59 5.94-23 4.82-3.96-1.28-6.97-3.04-10-5.88-1.43-3.04-1.61-4.8-1-8.12 8.86-9.06 20.7-8.99 31.98-4.27z" fill="#fdba4c"/><path d="M459.402 524.965c3.57 2.79 3.57 2.79 4.04 6.29-.44 3.75-.44 3.75-3.07 6.56-5.02 3.89-10.69 4.5-16.87 4.56l-3.85.09c-4.49-.57-7.44-2.26-10.65-5.46-.38-2.75-.38-2.75 0-6 6.79-8.86 20.65-11.67 30.4-6.04z" fill="#fdb94a"/><path d="M441 358l1 4-1 1 2.44.62c3.06 1.19 5.59 2.43 8.37 4.13l2.33 1.42c2.5 2.46 2.36 4.41 2.86 7.83l3.5 5.62c3.87 5.67 3.87 5.67 4.5 9.38-6 .48-11.21-1.29-16.88-3l-2.95-.87L438 386l2-1c-1.41-3.21-2.87-6.2-5-9-3.81-1.06-3.81-1.06-7-1v-1h6l.44-3.38C435 367 435 367 436 365l-2-2 2.38-1.38C439 360 439 360 441 358z" fill="#76a741"/><path d="M686.18 558.793c2.64 1.71 4.08 3.59 5.82 6.21-.08 4.23-.28 6.27-3.31 9.31-4.66 2.92-7.52 3.98-13.13 4l-3.37.05c-3.51-.4-5.36-1.29-8.19-3.36-2.32-3.21-2.48-6.12-2-10 5.21-8.19 15.26-9.45 24.18-6.21z" fill="#fdbc4e"/><path d="M614 708h1v29l-7.56 3.06c-6.68 2.72-13.23 5.63-19.7 8.81-2.8 1.35-4.59 2.13-7.74 2.13l2.88-2.69c5.29-5.29 9.65-11.33 14.12-17.31l2.43-3.23L606 719l4.81-6.38c1.11-1.51 2.15-3.06 3.19-4.62z" fill="#eaca95"/><path d="M466.625 685.5l2.37-.05c3.39.03 5.46.09 8.09 2.33.92 2.22.92 2.22.8 4.38-.88 1.84-.88 1.84-4.07 3.34l-4.81 1.5-3.54 1.11c-10.04 3.03-10.04 3.03-13.46 1.89-5.78-.48-10.45.36-16 2-2.34.07-4.67.1-7 0l-1-4c4.72-3.78 9.25-3.3 15-3l1-5c7.61-3.01 14.47-4.42 22.62-4.5z" fill="#d94826"/><path d="M513.875 545.313c4.88 2.63 4.88 2.63 6.12 4.69.5 3.43.5 3.43 0 7-3.7 3.91-7.83 5.77-13.15 6.33l-3.35.04-3.34.09c-3.84-.56-5.45-1.72-8.16-4.46-1.06-3.44-1.06-3.44-1-7 4.81-8.46 14.3-10.12 22.88-6.69z" fill="#fdbd4e"/><path d="M718 814v6c-7.38 4.82-14.35 4.79-23 4-4.33-.92-7.83-1.83-11-5-.44-2.94-.44-2.94 0-6 9.68-7.8 23.91-4.05 34 1z" fill="#c07021"/><path d="M646 767l2.53 1.21c6.41 3.01 12.69 5.72 19.47 7.79l-14 11-2.62 2c-3.58 1.51-5.63.98-9.38 0-3.42-1.52-6.72-3.21-10-5 1.58-4.07 4.31-6.25 7.56-9.06 5.33-4.61 5.33-4.61 6.44-7.94z" fill="#bda776"/><path d="M583 673l2 2c-.57 5.57-.57 5.57-2 7l5 3-1 5c-4.08 2.04-9.16 1.53-13.45.29-1.52-.55-3.02-1.12-4.51-1.73-2.45-.67-3.61-.17-6.04.44-2.86.08-5.71-.14-8.56-.31l-2.33-.11c-3.8-.22-5.88-.43-9.11-2.58l1-3 10.31-.06 2.96-.03 2.84-.01 2.62-.01C565 683 565 683 568 684l2-2-1.56-1.19L567 679c.31-2.69.31-2.69 1-5 4.85-1.29 10.02-1.52 15-1z" fill="#ec6638"/><path d="M441 787c1 1 1 1 1.1 2.85L442 796c-5.51 3.75-10.16 4.43-16.69 4.5l-2.23.05c-3.71-.04-5.89-.43-9.06-2.43-2.02-2.12-2.02-2.12-2.71-4.56.83-3.09 2.24-4.58 4.78-6.49 7.96-4.47 16.97-4.04 24.91-.07z" fill="#bb6a1d"/><path d="M623.125 801.375c2.88 1.62 2.88 1.62 4.88 3.62-.11 3.09-1 4-3.26 6.13-5.4 3.68-9.87 4.24-16.24 4.25l-2.27.07c-4.03.03-5.81-.16-9.27-2.47-1.96-1.98-1.96-1.98-1.96-4.16 1.54-4.34 5.02-5.8 9-7.82 5.92-1.97 13.3-2.05 19.12.38z" fill="#c17222"/><path d="M608 536l3 1c-12.68 27.95-12.68 27.95-20 41-3.36-1.26-5.63-2.26-8-5l3-2c.72-3.43 1.05-6.44.77-9.93.3-3.96 1.54-5.14 4.29-7.95l2.49-2.59L596 548l3.75-4.38c2.53-2.89 4.98-5.53 8.25-7.62z" fill="#f8a833"/><path d="M708.938 641.688l3.15-.11c2.91.42 2.91.42 5.29 2.15 2.49 3.48 1.84 5.79 1.32 9.9-1.37 6.61-3.53 12.99-5.7 19.37l-4-1-.5-1.83-2.31-8.29-.79-2.89c-1.4-4.97-2.96-9.41-5.4-13.99v-2c3.16-1.05 5.62-1.23 8.94-1.31z" fill="#bf3722"/><path d="M418 381c11.91.85 23.32 4.39 34.62 8.07 6.67 2.12 13.46 3.69 20.29 5.23 4.19.95 8.16 1.92 12.09 3.7v6c-5.26-.55-9.95-1.43-15-3.06l-2.02-.65-4.48-1.47-8.24-2.68c-9.64-3.15-19.23-6.39-28.7-10.02l-2.29-.86c-5.15-2.02-5.15-2.02-6.27-4.26z" fill="#b0c360"/><path d="M690 352c.69 2.06.69 2.06 1 4l2 1c4.99 3.32 8.1 7.84 11 13v2c-6.75 4-6.75 4-9 4-1.3-2.01-1.3-2.01-2.75-4.69-5.81-9.93-13.63-12.43-24.25-15.31 3.06-2.62 3.73-3 8-3v-2c10.02-1.61 10.02-1.61 14 1z" fill="#639539"/><path d="M816 382c-1.25 3.76-2.47 4.2-5.8 6.25l-2.96 1.84-3.12 1.91-6.05 3.75-2.73 1.67c-2.06 1.39-3.67 2.75-5.34 4.58l4.94 2.06 3.26 1.37 8.35 3.39 2.33.94 4.59 1.83c5.42 2.19 5.42 2.19 6.53 4.41-6.42.19-11.91-1.29-18.06-3l-3.26-.81c-5.2-1.45-8.83-2.5-11.8-7.19-.66-1.32-1.29-2.65-1.88-4l-2-4 1.69-.84 7.75-3.85 2.66-1.32c5.08-2.53 10.04-5.16 14.91-8.08C812 382 812 382 816 382z" fill="#b4c361"/><path d="M550.09 337.535c7.76 3.91 14.83 9.39 19.91 16.46-3.62 1.81-7.07 1.83-11 1-3.66-2.28-6.77-5.14-10-8-6-4.79-10.24-7.73-18-8-1.34-.3-2.68-.61-4-1 7.77-4.78 14.89-3.7 23.09-.46z" fill="#86ab45"/><path d="M537 792c2.31 1.52 2.31 1.52 4 3-.31 2.88-.31 2.88-1 6-5.87 3.92-13.1 3.13-19.94 3.06-.87 0-1.75-.01-2.65-.01L511 804c-.19-2.38-.19-2.38 0-5 3.04-2.02 5.52-2.63 9.03-3.43 1.97-.57 1.97-.57 4.35-2.19 3.99-2.1 8.2-2.11 12.62-1.38z" fill="#a76f32"/><path d="M673.039 433.199c6.69 2.39 12.85 5.16 18.96 8.8-.31 2.38-.31 2.38-1 5l-3 2-3.32-1.68-4.37-2.19-2.18-1.11c-10.55-5.3-10.55-5.3-16.07-5.08-3.82.08-7.3-.15-11.06-.94 6.77-6.94 12.67-7.84 22.04-4.8z" fill="#709e3d"/><path d="M665 651l1 2 3.19-.19c4.05.2 5.72.63 8.81 3.19 1.31 2.69 1.31 2.69 2 5-1 1-1 1-3.29 1.1l-2.77-.04-2.79-.02L669 662l-1 5-4.75.19-2.67.1c-3.06-.34-4.39-1.17-6.58-3.29v-2l-3-1c4.07-4.59 8.56-7.22 14-10z" fill="#f18349"/><path d="M472 376c5.47.58 9.3 3.67 13.65 6.76 4.18 2.84 7.3 3.88 12.35 4.24l1-2h2c-1.62 3.3-3.36 6.53-5.12 9.75l-1.64 2.98L493 400c-3.47-.46-6.67-.89-10-2-.92-2.19-.92-2.19-1.75-5-1.77-5.31-4.23-9-7.86-13.22C472 378 472 378 472 376z" fill="#588435"/><path d="M631 783l15 7v3c-4.99 3.95-10.63 7.46-17.12 7.56C625 800 625 800 623 798c-.56-2.62-.56-2.62 0-6 2.36-3.3 5.14-6.14 8-9z" fill="#dec89b"/><path d="M655 693l3 2v2c-5.12 2.45-9.34 3.5-15 4v4l3.56-1.5c4.03-1.53 7.16-1.77 11.44-1.5l1 3c-1.16 2.21-2.23 4.23-4 6-1.93.17-1.93.17-4.31.19l-2.37.04c-2.57-.25-4.13-.87-6.32-2.23-2.32-2.9-2.98-4.87-3.56-8.56.56-3.44.56-3.44 2.94-5.88 4.6-1.98 8.66-2.29 13.62-1.56z" fill="#ee6538"/><path d="M756 712c4.48.64 8.27 2.36 12.31 4.31l2.01.96 3.91 1.89c1.49.7 2.99 1.37 4.49 2.02 5.02 2.21 5.02 2.21 6.4 5.44C785 729 785 729 783 731c-9.47-.19-16.83-6.38-24-12l-4-3 1-4z" fill="#f07246"/><path d="M454 395l2 2-3.69.75c-5.08 1.12-10 2.67-14.96 4.24-4.16 1.26-8.36 2.3-12.6 3.3-2.75.71-2.75.71-5.64 1.7-4.64 1.51-9.38 2.36-14.16 3.33C402 411 402 411 401 412c-2 .04-4 .04-6 0l1-3c1.74-.86 1.74-.86 3.98-1.54l2.48-.75 11.79-3.15c21.07-5.47 21.07-5.47 27-8.94 4.36-2.37 8.28-1.46 12.75.38z" fill="#628f3a"/><path d="M646.559 671.723l2.88.34 2.87.28c2.9.71 4.47 1.72 6.69 3.66l-2 5 16 1v1l-2.7.18-3.55.25-3.51.25c-2.55.25-4.8.6-7.24 1.32l-.37 1.93-.63 2.07c-2.48 1.24-4.24 1.16-7 1.18l-2.69.05c-2.31-.23-2.31-.23-4.31-2.23l1-4h10v-3l-2.69-.25c-3.72-.85-5.52-2.21-8.31-4.75 2.27-3.92 2.27-3.92 5.56-4.28z" fill="#ea8a4c"/><path d="M772.563 786.563h3.38c3.27.47 4.66 1.23 7.06 3.44-.13 2.31-.13 2.31-1 5-5.27 4.24-12.57 3.68-19 3-2-2-2-2-2.44-4.38.44-2.62.44-2.62 2.55-4.76 3.45-2.22 5.39-2.37 9.45-2.3z" fill="#a36a2f"/><path d="M705 376l.12 4.38.08 2.46C705 385 705 385 703 387l-1.06 8.06c-.82 7.82-.82 7.82-1.94 8.94h-7c-1.22-3.66-.34-4.4 1.26-7.7.97-3.01.93-5.77.99-8.92.3-5.81.3-5.81 2.29-8.33 2.39-1.71 4.46-3.05 7.46-3.05z" fill="#5f8f3a"/><path d="M614 708h1v26l-3-4c-3.36-.39-3.36-.39-7.19-.25l-3.85.11-2.96.14c3.76-5.9 7.83-11.42 12.27-16.84C612 711 612 711 614 708z" fill="#e0b97e"/><path d="M675 487l-.38 6.25-.21 3.52c-.37 2.94-.89 4.73-2.41 7.23l2 2-16 1c1.67-6.66 9.03-20 17-20z" fill="#fdcc67"/><path d="M499 422c-1.07 2.92-1.78 4.78-4 7-1.83.55-1.83.55-4.04.96l-2.45.49-2.57.49c-5.8 1.1-11.32 2.39-16.88 4.41-3.31 1.05-6.6 1.34-10.06 1.65v-2l2.21-.85 15.45-5.97 2.4-.94 4.67-1.83c11.74-4.59 11.74-4.59 15.27-3.41z" fill="#bbd06b"/><path d="M657 438l2 2-1.95 1.08c-2.89 2.71-2.65 4.72-2.8 8.61l-.17 3.57L654 456c-4.04-1.34-6.39-3.05-9.31-6.12l-2.12-2.2L641 446c5.1-6.34 7.68-8.53 16-8z" fill="#7aa540"/><path d="M572 414c8.59 1.82 14.94 5.89 22 11l-1 3 1.88.81C597 430 597 430 599 433c-.38 2.19-.38 2.19-1 4l-1.29-1.25c-6.7-6.19-14.42-11.15-22.6-15.17L572 419c-.31-2.69-.31-2.69 0-5z" fill="#89b042"/><path d="M615 370c-.54 4.17-2.86 6.46-5.56 9.56-4.81 5.6-9.19 11.4-13.44 17.44l3 1h-4v-2c-2.97 1.12-5.33 2.22-8 4l-1-2c5.47-6.47 11.32-12.51 17.31-18.5l2.75-2.78 2.62-2.63 2.37-2.38C613 370 613 370 615 370z" fill="#bdce70"/><path d="M679 690l2 4c-4.91 2.57-8.81 4.04-14.33 4.32l-2.42.12-2.5.12-2.55.13-6.2.31c3-2 3-2 5-2l-3-4c8.14-2.74 15.44-3.37 24-3z" fill="#ed6e43"/><path d="M695 359c3.79 3.15 6.47 6.79 9 11v2c-6.75 4-6.75 4-9 4-1.44-2.12-1.44-2.12-3-4.88-2.81-4.93-2.81-4.93-5-7.12v-3c3.27-2.18 4.21-2.63 8-2z" fill="#5d8e35"/><path d="M774 371h2c-1.05 7.58-4.74 16.38-10 22-4.84 1.74-8.94 1.7-14 1l8.45-8.41 3.67-3.65 1.88-1.86c2.45-2.42 4.75-4.74 6.8-7.51L774 371z" fill="#b5c563"/><path d="M461 393c7.8.07 16.99 1.5 24 5v6c-5.7-.58-10.96-1.63-16.44-3.31l-2.18-.61c-2.06-.63-2.06-.63-5.38-2.08-1.04-2.11-1.04-2.11-1-4l1-1z" fill="#bfd16c"/><path d="M769 394c6.41-.67 9.99 1.05 15 5 2.91 2.37 4.77 4.61 5.41 8.43.17 4.98-.19 8.55-3.41 12.57l-5-2c0-3 0-3 1.06-4.75 1.47-3.52 1-5.62-.06-9.25-3.54-4.18-8.01-6.81-13-9v-1z" fill="#54812f"/><path d="M690 404c2.69.18 5.33.62 8 1-.61 3.99-2.71 6.74-5 10h5v2c-13.63-.96-13.63-.96-20-2v-2c1.76-1.42 3.59-2.76 5.44-4.06 5.53-3.91 5.53-3.91 6.56-4.94z" fill="#95b04c"/><path d="M607 507h50c-4.41 3.31-8.95 5.94-13.75 8.62l-2.63 1.53c-5.34 2.98-9.5 4.55-15.62 4.85v-2c3.64-2.55 7.54-4.11 11.69-5.69l3.45-1.32C643 512 643 512 645 512l-1-3-37-1v-1z" fill="#fbd27a"/><path d="M690 450c7.09.35 11.32 1.82 17.12 5.81l4.01 2.65 1.96 1.29c8.7 5.68 8.7 5.68 13.85 6l2.34.17 1.72.08c-2 2-2 2-5.62 2.31-12.16-.41-25.92-10.08-35.38-17.31v-1z" fill="#75a33c"/><path d="M613 728h1l1 7c-3.62 1.81-8.21 1.29-12.23 1.34-2.15.09-2.15.09-5.77.66-1.27 1.96-1.27 1.96-2 4-3.62 1.25-3.62 1.25-7 2l2.75-3.69 1.55-2.07L594 735l1.75-2.72c3.08-3.12 5.13-2.94 9.44-3.03 6.75-.19 6.75-.19 7.81-1.25z" fill="#e7c28a"/><path d="M608 536l3 1-4.31 9.94-1.23 2.86-1.2 2.73-1.09 2.52C602 557 602 557 599 558l-.31-1.88C598 554 598 554 595 552c1.05-6.22 6.31-10.43 10.75-14.56L608 536z" fill="#f19b2d"/><path d="M699 643c4.25 3.49 4.95 7.82 6 13h-2v-2c-3 1-3 1-5 3l-1.44-3.44C695 650 695 650 694 649c-2.88-.31-2.88-.31-6 0-1.88 2-1.88 2-3 4v-9c4.58-1.18 9.31-1.76 14-1z" fill="#ec683f"/><path d="M782 661l2 1c-.12 2.31-.12 2.31-1 5-4.67 3.39-9.43 3.61-15 3-1-1-1-1-1.38-3.38.38-2.62.38-2.62 2.26-4.43 4.36-1.66 8.49-1.62 13.12-1.19z" fill="#fac264"/><path d="M736 401l-7.08 3.54-5.68 3.01c-4.98 2.63-8.13 4.01-13.68 2.39-2.95-1.13-5.75-2.5-8.56-3.94l1.89-.3c5.19-.84 10.35-1.74 15.51-2.76l2.86-.56 5.7-1.15 2.67-.52 2.41-.49C734 400 734 400 736 401z" fill="#8bac48"/><path d="M477 363c3.87 1.37 6.8 3.15 10.06 5.62 5.85 4.35 11.85 8.38 17.94 12.38l-2 4c-4.28-.48-6.68-3.2-9.62-6.06-4.67-4.43-9.48-8.5-14.61-12.38L477 365v-2z" fill="#9fb252"/><path d="M544 683h21l1 4c-3.92 2.61-7 2.07-11.5 1.75l-2.34-.12c-3.81-.25-5.93-.48-9.16-2.63l1-3z" fill="#f49355"/><path d="M708 419c3.29-.17 5.03-.25 8 1 2.61 3.36 4.21 7.15 6 11l3.44 6.06c1.56 2.73 1.56 2.73 2.56 4.94l-1 2c-4.32-4.82-8.42-9.75-12.36-14.89-1.47-1.9-3-3.73-4.58-5.55C708 421 708 421 708 419z" fill="#93aa49"/><path d="M642 430l6.88.38 3.86.21C656 431 656 431 658 433h-2l-1 3c-2.18 1.57-2.18 1.57-4.88 3.12l-2.67 1.58C645 442 645 442 642 443v-13z" fill="#639136"/><path d="M747 425c8.18 2.4 15.47 6.09 23 10v2c-5.51-.59-10.26-1.99-15.44-3.94-5.47-2.03-10.87-3.73-16.56-5.06l6.19-1.5C746 426 746 426 747 425z" fill="#a2b655"/><path d="M431.125 375.938l2.76.03 2.12.03c4 6.75 4 6.75 4 9-6.44-.51-11.96-1.73-18-4 2.21-4.89 3.88-5.13 9.12-5.06z" fill="#5b8737"/><path d="M383 366c2.86 2.39 3.52 4.23 4.12 7.88l.45 2.55.43 2.57.68 2.7.32 2.3-2 2-2.94-2.81-1.65-1.58c-2.65-3.02-2.52-5.98-2.47-9.8l.02-2.73.04-2.08 3-1z" fill="#68963d"/><path d="M686 717c-.22 3.81-.99 4.99-3.69 7.81-3.57 2.36-5.13 2.77-9.31 2.19-1-1-1-1-1.44-3.31.44-2.69.44-2.69 2.94-5 4.31-2.08 6.78-2.02 11.5-1.69z" fill="#f8c364"/><path d="M445 393l4.44.81 2.43.52C454 395 454 395 456 397l-3.69.75c-5.24 1.15-10.3 2.78-15.39 4.45-2.92.8-2.92.8-6.92.8.09-1.83.09-1.83 1-4 2.91-1.45 2.91-1.45 6.5-2.69 6.45-2.26 6.45-2.26 7.5-3.31z" fill="#679739"/><path d="M581.75 683.938l2.98.03 2.27.03 1 5c-4.03 2.69-7.27 2.57-12 2-3.06-1.5-3.06-1.5-5-3l1-3c3.17-1.27 6.38-1.1 9.75-1.06z" fill="#fcbd65"/><path d="M532 712c4.51.39 7.53 2.16 11 5 .88 2.75.88 2.75 1 5-2.84 1.42-4.85 1.31-8 1-3.09-2.17-3.88-3.51-4.81-7.19L531 713l1-1z" fill="#f8c363"/><path d="M717 721c2.44.06 2.44.06 5 1 1.88 2.25 1.88 2.25 3 5-.4 4.4-.4 4.4-2 6-2.94.19-2.94.19-6 0-2-2-2-2-2.27-3.88l.02-2.12-.02-2.12C715 723 715 723 717 721z" fill="#f8c463"/><path d="M567 694c5.99-.32 9.64.32 15 3-.88 3.88-.88 3.88-2 5-6.08.61-9.06-.78-14-4l1-4z" fill="#fcbc60"/><path d="M614 708h1v26h-1v-10l-3.88-.94c-2.22-.54-4.07-1.03-6.12-2.06l1.68-2.08 2.2-2.73 2.17-2.71L614 708z" fill="#da9f66"/><path d="M650.063 692.688l2.6.01c2.34.3 2.34.3 5.34 2.3v2c-5.55 2.84-9.8 3.38-16 3l-1-4c3.07-2.7 4.98-3.39 9.06-3.31z" fill="#fcc266"/><path d="M791 670l2 4c-4.07 2.92-6.85 3.34-11.81 3.19l-3.52-.08L775 677c1.29-2.92 1.87-3.92 4.62-5.75 4.13-1.53 7.01-1.48 11.38-1.25z" fill="#fcc668"/><path d="M515 715c3.47.29 4.81.82 7.38 3.25 1.62 2.75 1.62 2.75 1.43 5.5C523 726 523 726 522 727c-2.38.31-2.38.31-5 0-2.59-2.32-2.97-3.65-3.25-7.12C514 717 514 717 515 715z" fill="#f8bf61"/><path d="M479.313 646.688c2.69.31 2.69.31 5 1.94 2.13 3 2.09 4.77 1.69 8.37-1 1-1 1-3.25 1.38-2.75-.38-2.75-.38-5.63-2.57-2.12-2.81-2.12-2.81-2-5.56 1.23-3.16 1.23-3.16 4.19-3.56z" fill="#f9c362"/><path d="M700 719h4c.22 3.7.21 6.46-1.12 9.94-1.88 2.06-1.88 2.06-5 2.44C695 731 695 731 694 730c-.38-2.25-.38-2.25 0-5 2.44-2.75 2.44-2.75 5-5l1-1z" fill="#fac868"/><path d="M563 653l2 2c-.06 2-.06 2-1 4-4.18 2.53-8.27 2.16-13 2l-1-3c4.44-4.59 6.51-5.35 13-5z" fill="#fac76b"/><path d="M782 690h15l1 5c-1.71 1.71-3.91 1.21-6.25 1.25-4.41-.02-7.24-.34-10.75-3.25l1-3z" fill="#f9c666"/><path d="M578.125 672.938l2.76.03 2.12.03 2 4c-4.5 3.37-7.58 3.44-13 3l-3-2c2.21-4.89 3.88-5.13 9.12-5.06z" fill="#fdc367"/><path d="M690.875 647.75c3.12.25 3.12.25 5 1.31 1.71 2.94 1.31 5.62 1.12 8.94-2.18.81-2.18.81-5 1-2.81-2.13-2.81-2.13-5-5-.37-2.75-.37-2.75 0-5 1-1 1-1 3.88-1.25z" fill="#fdc769"/><path d="M498 717l5 1v8c-2 2-2 2-5.62 2.12L494 728c-.81-2.12-.81-2.12-1-5 1.44-2.3 3.11-4.02 5-6z" fill="#f9c76c"/><path d="M675 654c2.94 2.56 2.94 2.56 5 5l-1 3-4.25-.38-2.39-.21c-2.45-.43-4.21-1.2-6.36-2.41v-5c3.22-1.61 5.56-.82 9 0z" fill="#fdc268"/><path d="M455 373c6.37 2.57 10.92 9.54 14 15.5 1 2.5 1 2.5 1 4.5l2 1c-4.37.35-4.37.35-7-1-1.89-2.88-3.25-5.82-4.64-8.97-1.1-2.45-2.19-4.49-3.74-6.65C455 375 455 375 455 373z" fill="#5b8336"/><path d="M761 654c1 1 1 1 1.38 3.38-.38 2.62-.38 2.62-2.57 4.43-2.93 1.24-4.68 1.61-7.81 1.19l-2-2c.19-2.5.19-2.5 1-5 3.66-2.44 5.69-2.24 10-2z" fill="#f9c76a"/><path d="M770 804l5.38-.12 3.02-.08c2.6.2 2.6.2 4.6 2.2-.19 2.06-.19 2.06-1 4-3.92 1.31-6.86 1.2-11 1l-2-2c.38-2.62.38-2.62 1-5z" fill="#dea95c"/><path d="M539.625 648.875l3.38.12 1 5c-3.26 2.89-5.6 4.64-10 5a47.14 47.14 0 0 1-1-1c.81-8.92.81-8.92 6.62-9.12z" fill="#f8c164"/><path d="M607 716c-.88 4.41-3.31 7.31-6.06 10.75l-1.43 1.82L596 733l-1-2-5 1c1.53-3.81 3.87-5.9 6.94-8.56 4.97-4.34 4.97-4.34 6.75-6.22C605 716 605 716 607 716z" fill="#bb351e"/><path d="M856 778c2.56 3.84 2.25 6.95 2.2 11.39l-.01 2.47-.07 7.83-.02 5.3L858 818h-1l-1-14h-1l-.11-2.55-.2-3.33-.18-3.3L854 792l-3-2 5-12z" fill="#c88d48"/><path d="M774 708c9.98.63 9.98.63 14 4v3c-2.87 1.43-4.81 1.31-8 1-3.38-1.75-3.38-1.75-6-4v-4z" fill="#fac063"/><path d="M739 887v1c-3.51.8-6.75 1.13-10.35 1.13l-3.08.01-3.19-.02-3.13.02c-6.8-.01-13.49-.4-20.25-1.14v-1c13.31-1.79 26.67-1.17 40 0z" fill="#c78236"/><path d="M642 684l5.88-.06 3.3-.04c2.82.1 2.82.1 4.82 1.1-.38 1.94-.38 1.94-1 4-2.48 1.24-4.24 1.17-7 1.19l-2.69.04C643 690 643 690 641 688c.38-2.12.38-2.12 1-4z" fill="#fcc162"/><path d="M588 565l7 3c-1.11 3.49-2.26 6.77-4 10-3.38-1.19-5.65-2.28-8-5l3-2c1.19-3.12 1.19-3.12 2-6z" fill="#fbaf3a"/><path d="M732 453h1l.06 5.94.04 3.34C733 465 733 465 732 466c-8.29 1.08-8.29 1.08-11.77-1.12-1.35-1.38-1.35-1.38-3.23-3.88h14l1-8z" fill="#5a8d32"/><path d="M479 404c7.62.88 7.62.88 11 2 .35 3.68.11 5.76-1.5 9.12-2.99 3.45-6.11 5.57-10.5 6.88l-3-1c6.62-4 6.62-4 10-4v-10l-6-2v-1z" fill="#53802f"/><path d="M587 559c1.51 8.93 1.51 8.93-1 13-2.12 1.31-2.12 1.31-4 2l-1-4h-2c.92-3.61 3.3-11 8-11z" fill="#fdb642"/><path d="M571 419c4.38 1.31 8.01 3 11.88 5.44l2.92 1.81L588 428v3c-1 1-1 1-3.56 1.06L582 432l-1-3-2.38-.88c-3.32-1.42-4-2.95-5.62-6.12l-2-3z" fill="#74a33b"/><path d="M527 421c3.06 2.96 5.97 6.02 8.81 9.19l1.83 2.04C539 434 539 434 539 436c-4.09-1.43-7.22-3.42-10.69-6l-2.88-2.12C523 426 523 426 521 424l6-3z" fill="#bdd06b"/><path d="M816 382c-1.39 4.17-4.32 5.46-7.88 7.69l-1.93 1.26c-4.8 3.05-4.8 3.05-8.19 3.05l-1-4 7.25-4 2.07-1.16 2.01-1.09 1.84-1.02C812 382 812 382 816 382z" fill="#b0c25d"/><path d="M385 258c4.14-.24 7.1.65 11 2l7.14 1.44 1.86.56 1 2c2.56.62 2.56.62 5 1v1c-6.45.3-11.81-.74-18-2.5l-2.64-.72L384 261l1-3z" fill="#f7dfb9"/><path d="M439.438 685l2.56 1c-1 3-1 3-3 4l-5.62.06-3.04-.02-2.34-.04-1-5c4.02-2.01 8.26-1.22 12.44 0z" fill="#f9c168"/><path d="M838 683c2.46 3.69 2.26 6.47 2.2 10.73l-.01 2.27-.07 7.19-.02 4.87L840 720h-1l-1-17-2-1 .44-8.94.12-2.57.12-2.45.11-2.27C837 684 837 684 838 683z" fill="#db5b36"/><path d="M466 399v2h-23c7.87-5.9 14.06-5.47 23-2z" fill="#7fa940"/><path d="M451 705c-.34 2.5-.85 3.82-2.5 5.75-3.76 1.88-7.38 1.49-11.5 1.25.74-3.78.74-3.78 3.06-5.75 3.9-1.66 6.73-1.46 10.94-1.25z" fill="#fcc96f"/><path d="M432.82 695.805l3.3.07 3.32.05 2.56.08v3c-3.1 3.09-5.39 2.99-9.75 3.06l-3.25-.06c-.63-1.88-.63-1.88-1-4 2-2 2-2 4.82-2.2z" fill="#fbcb6e"/><path d="M449 661c3 1.31 3 1.31 5 3v3l-5.25.19-2.95.1c-3.2-.33-4.53-1.06-6.8-3.29v-2c3.19-1.6 6.53-1.38 10-1z" fill="#fdbd63"/><path d="M453 654c4.35-.44 7.04-.39 10.44 2.38C466 659 466 659 466 661c-5.5.32-9.44.53-14-3l1-4z" fill="#fcc469"/><path d="M705 376v9l-5 1v2h-3c-.52-5.25-.52-5.25 0-8 4.6-4 4.6-4 8-4z" fill="#598735"/><path d="M516 775c-3.74 2.4-7.03 2.23-11.39 2.2l-2.14-.01-6.72-.07-4.57-.02L480 777l-1-2c12.43-1.14 24.55-.8 37 0z" fill="#c8492b"/><path d="M405 862c21.72-.19 21.72-.19 31 1l-2 3c-2.72.09-5.18 0-7.88-.25l-2.29-.18L417 865l-3.79-.3-8.21-.7v-2z" fill="#c87f30"/><path d="M802 442c-3.35 4.05-7.03 5.67-12 7-3 .19-3 .19-5 0l-1 3c-.25-2.31-.25-2.31 0-5 2.9-2.71 5.77-3.74 9.56-4.75l2.88-.8C799 441 799 441 802 442z" fill="#88ab47"/><path d="M658 702v4c-4.65 2.4-8.91 2.2-14 2 .34-1.92.34-1.92 1-4 4.35-2.07 8.24-2.19 13-2z" fill="#fcba60"/><path d="M779 700l5.31-.12 2.99-.08c2.7.2 2.7.2 5.7 2.2l-1 4c-7.22.49-7.22.49-11-1.88-2-2.12-2-2.12-2-4.12z" fill="#f9c86b"/><path d="M511 800l22 1 1 2c-2.92.84-5.51 1.12-8.55 1.1l-2.56-.01-2.64-.03c-.44 0-.44 0-2.69-.01L511 804v-4z" fill="#b96d23"/><path d="M661 386v2c-10.94 3.63-18.58 5.87-30 3l1.85-.35 8.34-1.59 2.91-.55 2.82-.54 2.58-.49 5.07-1.04C657 386 657 386 661 386z" fill="#b8cc6f"/><path d="M526 398h2c-.55 4.55-1.19 8.77-3 13l-3 1a138.67 138.67 0 0 0-5 5l-2-2 1.24-1.05c2.48-2.75 4.16-5.91 5.95-9.14l1.11-1.98L526 398z" fill="#bed26f"/><path d="M446 389c6.55.46 12.68 1.21 19 3l-1.94.81C461 394 461 394 460 397l-4.44-.81-2.49-.46L451 395l-1-3c-2.06-1.19-2.06-1.19-4-2v-1z" fill="#b5ca63"/></svg>